<?xml version="1.0" encoding="UTF-8"?>
<svg version="1.1" xmlns="http://www.w3.org/2000/svg" width="1254" height="1254">
<path d="M0 0 C413.82 0 827.64 0 1254 0 C1254 413.82 1254 827.64 1254 1254 C840.18 1254 426.36 1254 0 1254 C0 840.18 0 426.36 0 0 Z " fill="#FDFDFC" transform="translate(0,0)"/>
<path d="M0 0 C0.77813049 -0.00100708 1.55626099 -0.00201416 2.35797119 -0.00305176 C31.75204489 0.02236077 60.73941437 3.302324 88.99072266 11.60449219 C93.0143117 12.75408906 97.07226664 13.77146764 101.125 14.8125 C114.66767964 18.33670871 127.54536936 22.97061603 140.21875 28.90625 C142.76683527 30.03581357 145.31666824 31.04303789 147.91796875 32.0390625 C153.56735105 34.28706118 158.78930253 37.11135328 164.0625 40.125 C165.0537085 40.68944824 166.04491699 41.25389648 167.06616211 41.83544922 C187.91741046 53.86635294 206.84748518 67.65690447 224.25 84.25 C224.99636719 84.93191406 225.74273438 85.61382812 226.51171875 86.31640625 C230.85479555 90.38633357 233.88586162 94.22262956 234.4453125 100.41015625 C234.30420227 104.98055985 233.21846259 107.70954799 230.13085938 111.08007812 C229.49897705 111.77230469 228.86709473 112.46453125 228.21606445 113.17773438 C225.20621844 116.35016365 222.14414934 119.46001509 219.03125 122.53125 C218.03889343 123.51792664 218.03889343 123.51792664 217.02648926 124.52453613 C214.23421856 127.30066558 211.43594584 130.07071537 208.63818359 132.84130859 C206.57959102 134.8816708 204.52412097 136.92514331 202.46875 138.96875 C201.84875122 139.58045044 201.22875244 140.19215088 200.58996582 140.8223877 C196.79863358 144.59276064 193.22090897 148.49064725 189.74108887 152.55075073 C188.03542116 154.49453468 186.22907983 156.21154928 184.25 157.875 C181.33437463 160.32876956 181.33437463 160.32876956 178.50390625 162.87890625 C170.27711433 170.45971451 161.16846269 172.62049404 150.171875 172.45703125 C138.22923753 171.61082833 129.03485499 165.60411915 119.44018555 158.89868164 C94.29927835 141.52522564 65.29482641 129.8017614 35.25 124.25 C34.53908203 124.10481934 33.82816406 123.95963867 33.09570312 123.81005859 C-20.24014737 113.11762173 -80.7485859 126.68854024 -126.10546875 156.01171875 C-134.02684478 161.29079414 -141.55079322 167.01818663 -148.75 173.25 C-149.554375 173.94351563 -150.35875 174.63703125 -151.1875 175.3515625 C-162.94483501 185.71459817 -173.40328351 196.67652451 -182.75 209.25 C-183.38566895 210.086521 -183.38566895 210.086521 -184.03417969 210.93994141 C-191.29525646 220.50324275 -197.21542993 230.60527026 -202.75 241.25 C-203.16781738 242.04229004 -203.58563477 242.83458008 -204.01611328 243.65087891 C-214.87044076 264.44491373 -222.25294115 287.04768799 -225.75 310.25 C-225.92136475 311.32580322 -225.92136475 311.32580322 -226.09619141 312.42333984 C-229.85810725 336.97332398 -228.55344046 362.81941348 -224.75 387.25 C-224.54914795 388.57813721 -224.54914795 388.57813721 -224.34423828 389.93310547 C-222.14324467 403.93676058 -217.79280288 417.03057924 -212.75 430.25 C-212.35941406 431.28229736 -212.35941406 431.28229736 -211.9609375 432.33544922 C-201.71834648 458.96196503 -184.33534785 482.75237976 -164.75 503.25 C-163.91597656 504.12527344 -163.08195313 505.00054688 -162.22265625 505.90234375 C-133.5601476 535.28933919 -93.34638812 556.97950161 -53.05615234 564.796875 C-51.44627021 565.11319315 -49.83996397 565.4480261 -48.23681641 565.796875 C-33.89791516 568.88308825 -19.92669424 569.62703595 -5.3125 569.625 C-4.47540497 569.62681274 -3.63830994 569.62862549 -2.77584839 569.63049316 C52.86597503 569.61684861 106.75675554 548.40542343 146.72314453 509.45019531 C155.14763337 501.26895662 162.43134002 495.19078965 174.5 494.8125 C189.78315136 495.12995418 198.58821222 502.27497401 208.91796875 512.65234375 C209.83459793 513.56705948 210.75122711 514.48177521 211.69563293 515.42420959 C213.62774662 517.35338746 215.55622921 519.2861034 217.48217773 521.22143555 C219.94330001 523.69396747 222.41331544 526.15738893 224.88611889 528.61823177 C227.25578133 530.97890711 229.61777058 533.34719798 231.98046875 535.71484375 C232.8648613 536.59518784 233.74925385 537.47553192 234.66044617 538.3825531 C235.48172501 539.21013626 236.30300385 540.03771942 237.14916992 540.89038086 C238.23121956 541.97481728 238.23121956 541.97481728 239.33512878 543.0811615 C243.53231298 547.83501366 245.34832514 552.23256718 245.5625 558.5 C245.59988281 559.20640625 245.63726563 559.9128125 245.67578125 560.640625 C244.50495941 567.81593683 239.92879215 573.255301 235.1875 578.5 C234.61314209 579.14694824 234.03878418 579.79389648 233.44702148 580.46044922 C232.27579186 581.77583765 231.10045535 583.08758158 229.92089844 584.39550781 C228.4176455 586.06393407 226.92935821 587.74419732 225.4453125 589.4296875 C215.00461764 601.10963397 203.51830972 611.47923145 191.02099609 620.91162109 C189.25132636 622.24899764 187.49505501 623.60278041 185.73828125 624.95703125 C168.23605435 638.28614632 148.81696928 648.32953216 129.25 658.25 C128.51458984 658.6315625 127.77917969 659.013125 127.02148438 659.40625 C118.43656485 663.81991846 109.2608244 666.64052961 100.125 669.6875 C98.990625 670.06970703 97.85625 670.45191406 96.6875 670.84570312 C83.14237417 675.36842371 69.71427563 678.95303672 55.67260742 681.48754883 C53.18534291 681.93789056 50.70110528 682.40279786 48.21679688 682.86914062 C1.82219694 691.45540558 -50.52935305 688.36745459 -95.28125 673.40234375 C-99.89787359 671.86866812 -104.57701111 670.60426624 -109.2734375 669.33984375 C-113.87700598 667.89670262 -118.2948587 666.09538539 -122.75 664.25 C-124.02955566 663.72200806 -124.02955566 663.72200806 -125.33496094 663.18334961 C-164.20503518 646.98264534 -199.3990492 625.41534859 -230.203125 596.609375 C-232.27769543 594.68753368 -234.38034142 592.85843582 -236.5625 591.0625 C-239.65167849 588.45600565 -242.19465506 585.5235122 -244.8046875 582.4453125 C-246.99673818 579.97155249 -249.32173834 577.6828837 -251.6875 575.375 C-256.48093471 570.61760615 -260.66763342 565.62268602 -264.75 560.25 C-265.19601562 559.66976074 -265.64203125 559.08952148 -266.1015625 558.49169922 C-277.40053731 543.78263944 -287.32220587 528.62430439 -296.47021484 512.4921875 C-297.657716 510.41168185 -298.86445677 508.3442604 -300.08203125 506.28125 C-303.43590412 500.57503432 -306.491193 494.96632906 -308.76293945 488.73632812 C-309.70736454 486.35739537 -310.81043977 484.19839128 -312.02734375 481.94921875 C-315.52539216 475.01694328 -317.78354119 467.69111055 -320.125 460.3125 C-320.36233856 459.5736557 -320.59967712 458.8348114 -320.84420776 458.07357788 C-325.11734258 444.75678476 -328.81360319 431.34920576 -332.11083984 417.75585938 C-332.61465862 415.78061264 -333.21760798 413.83065281 -333.85546875 411.89453125 C-335.58010888 404.86794069 -335.77548135 397.50659627 -336.25390625 390.30078125 C-336.41439453 388.47740234 -336.41439453 388.47740234 -336.578125 386.6171875 C-336.7004248 384.96372314 -336.7004248 384.96372314 -336.82519531 383.27685547 C-338.03394772 379.32064842 -340.29916569 377.34187929 -343.75 375.25 C-347.07250213 374.51595765 -347.07250213 374.51595765 -350.66395569 374.63526917 C-351.335257 374.62958591 -352.0065583 374.62390265 -352.69820207 374.61804718 C-354.93494126 374.60518611 -357.16985534 374.62789339 -359.40649414 374.65063477 C-361.01501341 374.64876988 -362.62353141 374.64473145 -364.23204041 374.63868713 C-368.59163452 374.62872159 -372.95057733 374.64986709 -377.31007695 374.67716718 C-381.87479078 374.7010187 -386.43949216 374.6980524 -391.0042572 374.69847107 C-398.66839608 374.70309733 -406.33228634 374.7267277 -413.99633789 374.76293945 C-422.85551596 374.80468677 -431.71447023 374.8222553 -440.57374102 374.8255592 C-450.00914461 374.82915969 -459.44446775 374.8480347 -468.87983775 374.87267947 C-471.59742881 374.87890573 -474.31501375 374.88254352 -477.03260994 374.88571358 C-481.30327712 374.89161798 -485.57378471 374.90794175 -489.84438515 374.93231773 C-491.41129574 374.93975254 -492.97822641 374.94382933 -494.54515457 374.94429779 C-496.68460979 374.94555745 -498.82364567 374.9591176 -500.96302795 374.97584534 C-502.16001847 374.98049584 -503.35700899 374.98514635 -504.59027195 374.98993778 C-507.76394224 375.25114752 -509.96126099 375.72137984 -512.75 377.25 C-513.92796462 380.39649747 -513.92796462 380.39649747 -514.3828125 384.23046875 C-514.49601837 384.94075729 -514.60922424 385.65104584 -514.7258606 386.38285828 C-514.96496503 387.89888368 -515.19396008 389.41653226 -515.41369629 390.93548584 C-515.73975906 393.17951969 -516.09440279 395.41687881 -516.45996094 397.65478516 C-517.08425922 401.49889413 -517.67982406 405.34679855 -518.26513672 409.19702148 C-518.6148532 411.49580235 -518.96916255 413.79383549 -519.32421875 416.09179688 C-521.17183768 428.11902584 -522.88945725 440.16462438 -524.60444641 452.21130371 C-527.31338665 471.23499026 -530.06084705 490.2530938 -532.82013702 509.26953793 C-533.65374291 515.0149003 -534.48577882 520.76048064 -535.31420898 526.5065918 C-536.13342473 532.18851099 -536.95661354 537.86984219 -537.78245354 543.55080223 C-538.09033318 545.67318342 -538.39689647 547.7957561 -538.70196724 549.91854286 C-545.83706189 599.53598361 -545.83706189 599.53598361 -552.75 613.25 C-553.22050781 614.23613281 -553.69101562 615.22226562 -554.17578125 616.23828125 C-558.5953608 625.04579657 -564.13855216 632.00701088 -570.75 639.25 C-571.34554687 639.92804687 -571.94109375 640.60609375 -572.5546875 641.3046875 C-580.1866729 649.54419412 -590.09095921 655.20010592 -600.0625 660.125 C-601.1438623 660.67873291 -601.1438623 660.67873291 -602.24707031 661.24365234 C-617.1429121 668.2956489 -633.70112318 667.80913831 -649.80859375 667.8059082 C-653.53485404 667.81256224 -657.25857321 667.86747269 -660.984375 667.92382812 C-663.35936597 667.93261543 -665.73436945 667.9385795 -668.109375 667.94140625 C-669.21972107 667.9629628 -670.33006714 667.98451935 -671.47406006 668.00672913 C-679.01091615 667.93913682 -679.01091615 667.93913682 -682.47753906 664.70678711 C-685.33473602 656.94488157 -683.2542786 648.91791786 -682.01171875 640.95703125 C-681.71478632 638.99892909 -681.41787061 637.04082436 -681.12140083 635.08265209 C-680.79431772 632.9280123 -680.46462021 630.77378524 -680.1343689 628.61962891 C-678.88374973 620.45361317 -677.66004885 612.28353889 -676.4375 604.11328125 C-676.30017141 603.19629078 -676.16284283 602.27930031 -676.02135277 601.33452225 C-671.6180076 571.89643499 -667.45050032 542.423669 -663.25182772 512.95584822 C-662.73375742 509.32020178 -662.21541859 505.68459362 -661.69711304 502.04898071 C-657.02898772 469.3085901 -657.02898772 469.3085901 -652.37567043 436.56609344 C-651.82993483 432.72056959 -651.28312085 428.87519957 -650.73607826 425.02986145 C-650.49480242 423.33184874 -650.2540347 421.63376372 -650.01387596 419.93559265 C-648.81984305 411.49279364 -647.5724049 403.06305109 -646.22167969 394.64379883 C-644.96305381 386.77721752 -643.87305542 378.90014107 -642.87045479 370.99730873 C-640.65285062 353.57691945 -638.22048176 336.18739537 -635.75390625 318.80078125 C-635.5752943 317.54152706 -635.39668236 316.28227287 -635.21265793 314.98485947 C-634.1025577 307.16283553 -632.98964316 299.34121384 -631.87585449 291.51971436 C-630.38936611 281.07805953 -628.90634473 270.63591129 -627.42308044 260.19379807 C-627.06149653 257.64855931 -626.69981304 255.10333471 -626.33802795 252.55812454 C-623.74151937 234.29028086 -621.16843763 216.01933888 -618.63417053 197.74275208 C-616.61359469 183.18227924 -614.47162856 168.6414128 -612.27490234 154.10644531 C-611.78525319 150.86295376 -611.29829223 147.61907138 -610.8125 144.375 C-610.64991699 143.29444336 -610.48733398 142.21388672 -610.31982422 141.10058594 C-609.31860851 134.35913155 -608.3969605 127.6109616 -607.52734375 120.8515625 C-607.31315463 119.20425327 -607.09888028 117.55695513 -606.88452148 115.90966797 C-606.47046538 112.72508652 -606.0695441 109.53922642 -605.67602539 106.35205078 C-604.01170973 93.26853096 -601.50063799 80.61883158 -595.625 68.6875 C-595.23521973 67.88795898 -594.84543945 67.08841797 -594.44384766 66.26464844 C-581.68706811 40.8527775 -559.49892494 21.38019801 -532.625 12 C-523.39145759 8.94891642 -514.48217926 7.93463437 -504.79296875 7.9140625 C-503.13398308 7.9040773 -503.13398308 7.9040773 -501.44148254 7.89389038 C-499.12124278 7.88382809 -496.80097445 7.87907135 -494.48071289 7.87939453 C-490.93002428 7.87499073 -487.38054995 7.83851834 -483.83007812 7.80078125 C-481.56771256 7.79491789 -479.30534113 7.79094528 -477.04296875 7.7890625 C-475.98458298 7.77469147 -474.9261972 7.76032043 -473.83573914 7.74551392 C-466.50761601 7.79113479 -466.50761601 7.79113479 -462.60668945 10.15380859 C-459.01539953 14.20835367 -459.4639865 18.06508866 -459.75 23.25 C-460.17923526 27.13485081 -460.76580959 30.99039049 -461.37304688 34.85107422 C-461.82283854 37.71354375 -462.26310871 40.57741787 -462.703125 43.44140625 C-463.23021158 46.87120547 -463.75787093 50.30090747 -464.28808594 53.73022461 C-465.13813727 59.23300102 -465.97798666 64.73561897 -466.75 70.25 C-467.45599649 75.28935426 -468.22328317 80.31692928 -469.0078125 85.34448242 C-470.468588 94.70982135 -471.879262 104.07924466 -473.203125 113.46484375 C-473.32908554 114.35781662 -473.45504608 115.25078949 -473.58482361 116.17082214 C-473.84304644 118.00263792 -474.10121963 119.8344607 -474.35934448 121.66629028 C-476.19944231 134.71947074 -478.0661007 147.74753658 -480.41967773 160.72021484 C-481.68024513 167.6908801 -482.70703512 174.68049364 -483.67651367 181.69702148 C-484.44024507 187.19183236 -485.30363753 192.65889864 -486.25 198.125 C-487.6197206 206.0618496 -488.67936593 214.0272795 -489.66015625 222.02099609 C-490.24574526 226.71652162 -490.93266517 231.35515563 -491.8203125 236.00390625 C-492.58885052 240.11582243 -493.04707584 244.05462806 -493.0625 248.25 C-493.08763672 249.85875 -493.08763672 249.85875 -493.11328125 251.5 C-492.97577954 254.21032796 -492.97577954 254.21032796 -491.56358433 255.89806557 C-489.08402255 257.74645216 -487.44772938 257.62737027 -484.36936951 257.63095093 C-483.25220047 257.6394104 -482.13503143 257.64786987 -480.98400879 257.65658569 C-479.7575061 257.650513 -478.53100342 257.64444031 -477.26733398 257.63818359 C-475.97598038 257.64344055 -474.68462677 257.64869751 -473.35414124 257.65411377 C-469.80822039 257.66780922 -466.26256098 257.66247719 -462.71663547 257.65297651 C-459.0003786 257.64538011 -455.2841441 257.65242652 -451.56788635 257.65713501 C-445.31922394 257.66259739 -439.07066777 257.65539334 -432.82202148 257.64111328 C-425.61651836 257.62483573 -418.41127055 257.63003747 -411.20577377 257.6465925 C-405.01025708 257.66025352 -398.81481684 257.66210307 -392.61928993 257.65427649 C-388.92343699 257.64961879 -385.22770353 257.6489213 -381.53185844 257.65888596 C-377.40056415 257.66924519 -373.26970145 257.65484331 -369.13842773 257.63818359 C-367.31992813 257.64729263 -367.31992813 257.64729263 -365.46469116 257.65658569 C-350.81411238 257.54757407 -338.6282027 252.7731486 -327.99609375 242.60546875 C-321.77651798 236.08302668 -318.74863222 229.05612696 -315.62719727 220.73608398 C-304.50208898 191.1996839 -288.67997132 163.47233609 -269.75 138.25 C-268.95722656 137.19232422 -268.95722656 137.19232422 -268.1484375 136.11328125 C-261.29419562 127.02123894 -254.24019579 118.28103848 -246.37109375 110.046875 C-244.48202255 108.03111497 -242.7546593 106.0392185 -241.03515625 103.890625 C-239.90400391 102.58351563 -239.90400391 102.58351563 -238.75 101.25 C-238.09 101.25 -237.43 101.25 -236.75 101.25 C-236.53859375 100.7034375 -236.3271875 100.156875 -236.109375 99.59375 C-234.26207089 96.40874291 -231.71302316 94.1817345 -229 91.75 C-228.13435425 90.96496094 -228.13435425 90.96496094 -227.2512207 90.1640625 C-225.4254622 88.51686529 -223.58959716 86.88171926 -221.75 85.25 C-221.1813623 84.74339844 -220.61272461 84.23679687 -220.02685547 83.71484375 C-200.37854069 66.29011539 -178.79624144 51.79448824 -155.75 39.25 C-153.3799538 37.91026555 -151.01157838 36.56767896 -148.64453125 35.22265625 C-146.40048021 34.07055582 -144.09232311 33.18692924 -141.75 32.25 C-140.06070901 31.4506573 -138.37173511 30.6505739 -136.68823242 29.83911133 C-129.99131952 26.62009541 -123.30557311 23.87088881 -116.26171875 21.48828125 C-113.45678387 20.4992219 -110.74153798 19.42944242 -107.99609375 18.29296875 C-102.79951819 16.19682583 -97.5400485 14.67015852 -92.125 13.25 C-91.16352051 12.99436279 -90.20204102 12.73872559 -89.21142578 12.4753418 C-87.28108524 11.96404763 -85.34994749 11.45575239 -83.41796875 10.95068359 C-81.09757837 10.34128385 -78.78265675 9.71546877 -76.46875 9.08203125 C-65.99667556 6.30437736 -55.47819569 4.67578938 -44.75 3.25 C-43.63431641 3.09917969 -43.63431641 3.09917969 -42.49609375 2.9453125 C-28.31812923 1.04119385 -14.30092909 0.01296998 0 0 Z " fill="#013C98" transform="translate(858.75,288.75)"/>
<path d="M0 0 C12.72822138 11.05529189 22.17791972 25.23995361 23.65625 42.37890625 C23.79495161 45.94567521 23.80318356 49.50846633 23.80151367 53.07763672 C23.80487228 54.1192244 23.8082309 55.16081207 23.81169128 56.23396301 C23.82114179 59.65468558 23.82314076 63.07535897 23.82421875 66.49609375 C23.82743311 68.87883525 23.83079732 71.26157654 23.83430481 73.64431763 C23.84027959 78.62551329 23.84214617 83.60669163 23.84155273 88.58789062 C23.84145067 94.98395178 23.85515574 101.37990303 23.87232494 107.77593803 C23.88341136 112.68969234 23.88547306 117.60341967 23.88494301 122.51718521 C23.88612617 124.87679552 23.89056663 127.23640647 23.89827538 129.59600449 C23.90801667 132.88293089 23.9052216 136.16961307 23.89916992 139.45654297 C23.90478943 140.43731308 23.91040894 141.41808319 23.91619873 142.42857361 C23.91200424 143.32007614 23.90780975 144.21157867 23.90348816 145.13009644 C23.90403293 145.9069171 23.90457769 146.68373775 23.90513897 147.48409843 C23.65625 149.37890625 23.65625 149.37890625 21.65625 151.37890625 C14.02827778 152.26145333 6.23945862 150.98809206 -1.28125 149.75390625 C-2.36591553 149.57714355 -3.45058105 149.40038086 -4.56811523 149.21826172 C-14.79829953 147.45585918 -24.53291075 144.73026139 -34.34375 141.37890625 C-35.02663086 141.15509277 -35.70951172 140.9312793 -36.41308594 140.70068359 C-60.9318727 132.62624791 -83.157408 118.46375702 -102.34375 101.37890625 C-103.05402344 100.77820313 -103.76429688 100.1775 -104.49609375 99.55859375 C-108.72030018 95.98227174 -112.66980721 92.15300273 -116.59375 88.25390625 C-117.35570679 87.49895874 -117.35570679 87.49895874 -118.13305664 86.72875977 C-125.94597975 78.8822438 -125.94597975 78.8822438 -126.875 75.37109375 C-126.50404801 50.2390967 -115.63560263 28.36588614 -98.65625 10.31640625 C-73.45376147 -14.00350486 -28.93779191 -23.67870739 0 0 Z " fill="#03295E" transform="translate(825.34375,687.62109375)"/>
<path d="M0 0 C5.68913151 3.79497168 10.52557755 8.46294474 15.32421875 13.3046875 C15.9790625 13.92601562 16.63390625 14.54734375 17.30859375 15.1875 C30.12931565 28.30227516 36.6672175 48.83527804 36.99047852 66.78295898 C36.85089192 72.0171762 35.91073995 74.88981634 32.26171875 78.8671875 C30.63667284 80.36916193 28.99206676 81.85038891 27.32421875 83.3046875 C26.25999698 84.51437844 25.21702048 85.74318799 24.19921875 86.9921875 C-8.72688192 124.55683815 -55.35378888 149.49008005 -105.47265625 153.16064453 C-106.1996875 153.20817871 -106.92671875 153.25571289 -107.67578125 153.3046875 C-110.33280667 149.31914937 -109.97106479 145.83446935 -109.96630859 141.20605469 C-109.97302582 140.27386108 -109.97974304 139.34166748 -109.98666382 138.38122559 C-110.00571303 135.28795071 -110.00957308 132.19489247 -110.01171875 129.1015625 C-110.01814751 126.94459952 -110.02487593 124.78763742 -110.03189087 122.63067627 C-110.0438849 118.09783919 -110.04757007 113.56507839 -110.04638672 109.03222656 C-110.0461847 103.25929949 -110.07335566 97.48687122 -110.10793114 91.71406174 C-110.13032668 87.25097471 -110.13422022 82.78800468 -110.13316727 78.32486725 C-110.13550927 76.19927521 -110.14425271 74.07367924 -110.159832 71.94814301 C-110.30434363 50.17234267 -106.58641711 31.76933811 -92.67578125 14.3046875 C-92.20527344 13.66917969 -91.73476563 13.03367187 -91.25 12.37890625 C-69.67889315 -15.30083263 -28.28970255 -17.68971756 0 0 Z " fill="#015BF1" transform="translate(977.67578125,685.6953125)"/>
<path d="M0 0 C10.38418639 7.94690628 17.89545435 19.84086182 20.36328125 32.80859375 C21.50027212 49.1924458 18.00685739 63.2528444 7.17578125 75.93359375 C-0.32395846 83.91678776 -8.18265426 88.66130353 -18.63671875 91.80859375 C-19.31347656 92.03417969 -19.99023438 92.25976562 -20.6875 92.4921875 C-32.46527683 96.02795901 -43.94990046 93.46267239 -54.80859375 88.30078125 C-68.14631446 81.0225834 -77.44570084 70.06317706 -81.94140625 55.48046875 C-84.15693933 43.78046259 -84.35185868 30.4887615 -78.63671875 19.80859375 C-78.22421875 18.97585938 -77.81171875 18.143125 -77.38671875 17.28515625 C-70.56697727 4.69188363 -59.32299002 -4.22443326 -45.94921875 -9.12890625 C-29.70572286 -13.26787395 -13.63488374 -9.39291991 0 0 Z " fill="#025EF4" transform="translate(973.63671875,560.19140625)"/>
<path d="M0 0 C10.09296403 7.12533133 17.12192885 17.98606687 20 30 C20.43516948 33.38762184 20.52536219 36.71188385 20.5 40.125 C20.49355469 41.04007324 20.48710938 41.95514648 20.48046875 42.89794922 C20.06796314 58.40218971 13.90843229 70.59878784 2.75 81.3125 C-7.21475182 89.65349295 -20.3605445 94.78290245 -33.4453125 94.28125 C-48.23950825 92.6525312 -61.59222106 86.23032773 -70.96875 74.546875 C-80.70184905 61.10200089 -83.46786139 48.46557554 -82 32 C-79.23805349 17.41295316 -69.85358349 5.49875386 -57.8125 -2.75 C-38.51845928 -14.33172499 -18.15975911 -12.04630193 0 0 Z " fill="#03285C" transform="translate(823,560)"/>
<path d="M0 0 C0.54280735 0.3242565 1.0856147 0.64851299 1.64487076 0.98259544 C4.48565718 2.20980158 6.58953839 2.26148098 9.68206787 2.2784729 C11.41942451 2.29521812 11.41942451 2.29521812 13.19187927 2.31230164 C14.45854935 2.31446182 15.72521942 2.31662201 17.03027344 2.31884766 C18.38060607 2.32814805 19.73093296 2.33831689 21.08125305 2.34928894 C24.74411033 2.37659059 28.40692914 2.39173879 32.06986141 2.40471697 C35.89893442 2.4203468 39.72792888 2.44713749 43.5569458 2.4727478 C50.80643155 2.51953821 58.05593208 2.55628104 65.30549169 2.58942068 C73.55940579 2.62764022 81.813241 2.67705081 90.0670886 2.72740483 C107.04466867 2.83072858 124.0222944 2.91998753 141 3 C140.67 3.66 140.34 4.32 140 5 C136.13783707 5.87560268 132.40932212 6.12903246 128.45947266 6.14717102 C127.38288391 6.15432632 126.30629517 6.16148163 125.19708252 6.16885376 C124.03118591 6.17154266 122.86528931 6.17423157 121.6640625 6.17700195 C120.42436707 6.18357315 119.18467163 6.19014435 117.90740967 6.19691467 C113.8132706 6.21659469 109.71917054 6.22830147 105.625 6.23828125 C104.21169008 6.24233188 102.79838034 6.24644889 101.3850708 6.25063133 C94.74825845 6.26965278 88.11145706 6.2838944 81.47462273 6.2922433 C73.82474421 6.30202744 66.17515413 6.32839004 58.52537727 6.36874419 C52.60249146 6.39891322 46.67968837 6.4137126 40.75672722 6.41702431 C37.22304313 6.41937237 33.68966829 6.42830177 30.15606689 6.45348549 C26.21592973 6.48111761 22.27617281 6.47693265 18.3359375 6.4699707 C17.17004089 6.48278076 16.00414429 6.49559082 14.80291748 6.50878906 C8.64205294 6.46905252 4.59713693 6.3220577 0 2 C0 1.34 0 0.68 0 0 Z " fill="#173674" transform="translate(365,544)"/>
<path d="M0 0 C2.64 0 5.28 0 8 0 C8.33 1.32 8.66 2.64 9 4 C-74.16 4.495 -74.16 4.495 -159 5 C-154.66008995 1.74506746 -153.81757129 1.62666717 -148.67254639 1.63923645 C-146.72062881 1.63305046 -146.72062881 1.63305046 -144.72927856 1.6267395 C-143.28924353 1.63735634 -141.84921059 1.64826076 -140.40917969 1.65942383 C-138.89136777 1.66027013 -137.37355462 1.65979489 -135.85574341 1.65809631 C-131.73616943 1.65723506 -127.61685714 1.67488177 -123.49734402 1.69581819 C-119.19186668 1.71456335 -114.88638343 1.71633372 -110.58087158 1.71989441 C-102.42819122 1.72922123 -94.27563144 1.75384362 -86.1230042 1.78394288 C-76.84136381 1.81746707 -67.55971768 1.83396791 -58.27803183 1.84902918 C-39.18528617 1.88039263 -20.09265278 1.93316551 -1 2 C-0.67 1.34 -0.34 0.68 0 0 Z " fill="#08245B" transform="translate(507,659)"/>
<path d="M0 0 C0 0.66 0 1.32 0 2 C-1.17304688 2.26683594 -2.34609375 2.53367187 -3.5546875 2.80859375 C-21.87119297 7.40986095 -39.99131659 19.96538826 -51.74609375 34.4921875 C-53 36 -53 36 -54.57421875 37.55859375 C-56.49026065 39.49563337 -57.63559576 41.63853113 -59 44 C-59.34804688 44.51949219 -59.69609375 45.03898437 -60.0546875 45.57421875 C-63.06161536 50.10426367 -65.44833731 54.83560715 -67.75 59.75 C-68.05583008 60.4001709 -68.36166016 61.0503418 -68.67675781 61.72021484 C-76.32859174 78.33354002 -77.37181837 99.09287177 -80 117 C-80.33 117 -80.66 117 -81 117 C-79.91195264 79.2935311 -71.84332558 48.22231834 -43.75 21.3359375 C-32.52693963 11.04813216 -15.73587554 -0.76760368 0 0 Z " fill="#183567" transform="translate(333,301)"/>
<path d="M0 0 C2.40216309 0.00538547 4.8041412 0.0000092 7.20629883 -0.00634766 C22.80372414 -0.01562596 22.80372414 -0.01562596 29.20825195 1.13037109 C29.53825195 1.79037109 29.86825195 2.45037109 30.20825195 3.13037109 C27.56235181 3.15721788 24.916721 3.17713466 22.27075195 3.19287109 C21.13863281 3.20543945 21.13863281 3.20543945 19.98364258 3.21826172 C18.05830882 3.2268955 16.13289614 3.18261442 14.20825195 3.13037109 C13.87825195 2.80037109 13.54825195 2.47037109 13.20825195 2.13037109 C11.73172531 2.03156312 10.2505796 1.99957864 8.77075195 1.99755859 C7.87614258 1.99626953 6.9815332 1.99498047 6.05981445 1.99365234 C4.64829102 1.99945313 4.64829102 1.99945313 3.20825195 2.00537109 C2.26723633 2.00150391 1.3262207 1.99763672 0.35668945 1.99365234 C-0.98522461 1.99558594 -0.98522461 1.99558594 -2.35424805 1.99755859 C-3.59368164 1.99925049 -3.59368164 1.99925049 -4.8581543 2.00097656 C-6.79853844 1.91772303 -6.79853844 1.91772303 -7.79174805 3.13037109 C-9.15844511 3.27468419 -10.53180953 3.35726478 -11.9050293 3.41162109 C-12.74098633 3.44900391 -13.57694336 3.48638672 -14.43823242 3.52490234 C-15.31801758 3.55970703 -16.19780273 3.59451172 -17.10424805 3.63037109 C-18.82966273 3.69954139 -20.55493687 3.77233264 -22.2800293 3.84912109 C-23.04871338 3.87941406 -23.81739746 3.90970703 -24.609375 3.94091797 C-26.80780087 4.07183787 -26.80780087 4.07183787 -28.94873047 4.68310547 C-30.79174805 5.13037109 -30.79174805 5.13037109 -32.79174805 4.56787109 C-34.81936155 3.89962387 -34.81936155 3.89962387 -36.5847168 5.07177734 C-39.19373696 6.32318347 -41.22370521 6.46739837 -44.10424805 6.63037109 C-48.64140016 6.96869402 -52.47167003 7.74794613 -56.79174805 9.13037109 C-59.79314998 9.84122945 -62.72786564 10.22126563 -65.79174805 10.50537109 C-74.04482145 11.39648367 -82.009123 13.34483893 -89.72924805 16.38037109 C-93.79789363 17.95072553 -96.50085967 18.52201057 -100.79174805 17.13037109 C-100.79174805 17.79037109 -100.79174805 18.45037109 -100.79174805 19.13037109 C-103.67919117 20.33903695 -106.57774632 21.51840046 -109.47924805 22.69287109 C-110.70417969 23.20624023 -110.70417969 23.20624023 -111.95385742 23.72998047 C-119.46819137 26.74179853 -119.46819137 26.74179853 -123.79174805 25.13037109 C-105.00965932 12.60897861 -76.3610202 7.84262475 -54.22924805 4.63037109 C-53.36299805 4.50291504 -52.49674805 4.37545898 -51.60424805 4.24414062 C-43.6818751 3.09097584 -35.75159442 1.99216548 -27.79174805 1.13037109 C-26.96763428 1.04062012 -26.14352051 0.95086914 -25.29443359 0.85839844 C-16.859287 0.04038319 -8.46581535 -0.02258246 0 0 Z " fill="#1B68F0" transform="translate(857.791748046875,288.86962890625)"/>
<path d="M0 0 C0.99 0.99 0.99 0.99 2 2 C-1.02077574 1.57849641 -3.60545597 1.18688928 -6.375 -0.125 C-10.18004553 -1.39334851 -13.06575859 -0.66682058 -17 0 C-17.495 -1.485 -17.495 -1.485 -18 -3 C-31.24552682 1.36354362 -31.24552682 1.36354362 -42 10 C-47.91244031 16.21332786 -54.38462622 21.40485732 -61.18359375 26.60693359 C-62.95303504 27.9639809 -64.71147468 29.33428557 -66.46875 30.70703125 C-67.54111449 31.5345702 -68.61400552 32.36142742 -69.6875 33.1875 C-70.64011719 33.92355469 -71.59273437 34.65960937 -72.57421875 35.41796875 C-75 37 -75 37 -78 37 C-78.33 37.99 -78.66 38.98 -79 40 C-84.09915632 43.17280838 -84.09915632 43.17280838 -87.19921875 42.578125 C-88.09060547 42.29195312 -88.09060547 42.29195312 -89 42 C-88.11441406 41.50113281 -87.22882812 41.00226562 -86.31640625 40.48828125 C-71.65796477 32.0633365 -58.63204593 22.00032529 -46.52758789 10.20068359 C-32.97954796 -2.95452955 -18.37247141 -9.48033365 0 0 Z " fill="#176BF7" transform="translate(1052,788)"/>
<path d="M0 0 C0.33 0 0.66 0 1 0 C0.99777939 1.26089447 0.99555878 2.52178894 0.99327087 3.82089233 C0.97303277 15.68148158 0.95802462 27.54206734 0.94818783 39.40266991 C0.94296071 45.50087578 0.93586614 51.59906775 0.92456055 57.69726562 C0.91372562 63.57813275 0.90772187 69.45898649 0.90512276 75.33986282 C0.90326961 77.58782792 0.89965108 79.83579226 0.89426994 82.08375168 C0.88705151 85.22300575 0.8860094 88.36220386 0.88647461 91.50146484 C0.88287933 92.43869888 0.87928406 93.37593292 0.87557983 94.34156799 C0.8769545 95.19414688 0.87832916 96.04672577 0.87974548 96.92514038 C0.87882369 97.66810553 0.8779019 98.41107067 0.87695217 99.17654991 C0.88887049 101.09939028 0.88887049 101.09939028 2 103 C0.68 102.34 -0.64 101.68 -2 101 C-2.04628493 88.27421452 -2.08184964 75.54844897 -2.10362434 62.82259655 C-2.11407366 56.91384603 -2.12825381 51.00515298 -2.15087891 45.09643555 C-2.17256633 39.3971074 -2.18455998 33.69783462 -2.18975449 27.9984684 C-2.19345762 25.82110026 -2.20068864 23.64373525 -2.21146011 21.46639061 C-2.22592047 18.42308309 -2.22798023 15.38000612 -2.22705078 12.33666992 C-2.23424133 11.43108337 -2.24143188 10.52549683 -2.24884033 9.59246826 C-2.246091 8.76375717 -2.24334167 7.93504608 -2.24050903 7.08122253 C-2.24235262 6.36130221 -2.24419621 5.64138189 -2.24609566 4.89964581 C-2 3 -2 3 0 0 Z " fill="#1B62E2" transform="translate(870,735)"/>
<path d="M0 0 C0.66 0 1.32 0 2 0 C3.66666667 3.33333333 5.33333333 6.66666667 7 10 C7.3609375 10.69738281 7.721875 11.39476562 8.09375 12.11328125 C9 14 9 14 10.125 17.4375 C12.21556325 23.07788105 15.54528181 27.96537761 18.75537109 33.02246094 C21.14776146 36.8236304 23.47495179 40.66495997 25.8125 44.5 C26.51439453 45.64831299 26.51439453 45.64831299 27.23046875 46.81982422 C28.10532948 48.25127085 28.97864226 49.68366518 29.85009766 51.1171875 C30.82953798 52.72089106 31.82520158 54.31466804 32.82421875 55.90625 C34 58 34 58 34 60 C34.66 60 35.32 60 36 60 C37.46459961 61.6965332 37.46459961 61.6965332 39.15234375 64.05078125 C39.76400391 64.89447266 40.37566406 65.73816406 41.00585938 66.60742188 C41.64330078 67.50009766 42.28074219 68.39277344 42.9375 69.3125 C44.19430142 71.06025945 45.45333154 72.80641894 46.71484375 74.55078125 C47.27292725 75.33106689 47.83101074 76.11135254 48.40600586 76.9152832 C49.8301025 78.77779832 51.29774807 80.39340545 53 82 C52.505 83.485 52.505 83.485 52 85 C36.7435034 67.69503592 24.57456959 48.92665457 13 29 C12.51418457 28.17032715 12.02836914 27.3406543 11.52783203 26.48583984 C0 6.76174872 0 6.76174872 0 0 Z " fill="#0F3477" transform="translate(549,772)"/>
<path d="M0 0 C0.33 0 0.66 0 1 0 C1.23137973 8.26080734 0.64242007 16.04798562 -0.75 24.1875 C-0.93046875 25.2703125 -1.1109375 26.353125 -1.296875 27.46875 C-5.64075017 52.89851924 -5.64075017 52.89851924 -11 63 C-11.515625 64.03769531 -12.03125 65.07539062 -12.5625 66.14453125 C-16.01072629 72.87934823 -19.65696827 78.62448783 -25 84 C-25.99 83.34 -26.98 82.68 -28 82 C-25.66666667 79.66666667 -23.33333333 77.33333333 -21 75 C-20.29289322 73.35008418 -19.62056011 71.68437744 -19 70 C-18.34 70 -17.68 70 -17 70 C-17 69.34 -17 68.68 -17 68 C-16.34 68 -15.68 68 -15 68 C-15 66.68 -15 65.36 -15 64 C-14.34 64 -13.68 64 -13 64 C-12.9175 62.865625 -12.835 61.73125 -12.75 60.5625 C-12.23933119 56.31193318 -10.74271247 52.99505888 -8.9140625 49.16015625 C-7.646226 46.16394434 -7.35769572 43.21926144 -7 40 C-6.649375 38.824375 -6.29875 37.64875 -5.9375 36.4375 C-5.02948308 33.10810461 -4.83278595 30.42788808 -5 27 C-4.34 27 -3.68 27 -3 27 C-3 22.71 -3 18.42 -3 14 C-2.34 14 -1.68 14 -1 14 C-1.66 12.02 -2.32 10.04 -3 8 C-2.34 8 -1.68 8 -1 8 C-1.0309375 6.2984375 -1.0309375 6.2984375 -1.0625 4.5625 C-1 1 -1 1 0 0 Z " fill="#15305F" transform="translate(317,839)"/>
<path d="M0 0 C2.71416245 4.07124368 2.52988166 7.33078304 1.58203125 12.10546875 C1.2280905 13.60905162 0.8698416 15.11162535 0.5078125 16.61328125 C-0.36203065 20.70154405 -0.64464582 24.84104 -1 29 C-1.42208563 33.56477793 -1.9681272 38.01665078 -2.9375 42.5 C-4.1067719 48.02350086 -4.70734059 53.59040258 -5.30249023 59.19921875 C-5.63784251 62.2846004 -6.01504765 65.04514295 -7 68 C-7.22179785 69.89212737 -7.40614015 71.78884472 -7.5625 73.6875 C-7.64628906 74.68136719 -7.73007813 75.67523437 -7.81640625 76.69921875 C-7.87699219 77.45847656 -7.93757812 78.21773437 -8 79 C-8.66 79 -9.32 79 -10 79 C-9.814375 79.7425 -9.62875 80.485 -9.4375 81.25 C-8.99356848 84.04042671 -9.25302949 85.34410484 -10 88 C-10.03786901 89.66623639 -10.04627845 91.33397597 -10 93 C-10.66 92.67 -11.32 92.34 -12 92 C-12.38846063 83.40162541 -11.17662803 75.11121275 -9.8828125 66.640625 C-9.66275604 65.16397541 -9.44335767 63.68722761 -9.22457886 62.21038818 C-8.64974267 58.34167632 -8.06633882 54.47430606 -7.48095703 50.60717773 C-6.89247758 46.71021678 -6.31166803 42.81211472 -5.73046875 38.9140625 C-5.07323806 34.50810363 -4.41535916 30.10225488 -3.75125122 25.69732666 C-2.46125405 17.13690568 -1.21099832 8.57195822 0 0 Z " fill="#1A3667" transform="translate(189,847)"/>
<path d="M0 0 C0.66 0 1.32 0 2 0 C1.40385982 10.6792552 -0.11181349 21.12875356 -1.75 31.6875 C-2.15580436 34.33351509 -2.56010337 36.97975699 -2.96417236 39.6260376 C-3.23834317 41.42148778 -3.51304319 43.21685724 -3.78826904 45.012146 C-4.7026474 50.99206908 -5.58216938 56.97620732 -6.4375 62.96484375 C-6.54974915 63.7466954 -6.66199829 64.52854706 -6.77764893 65.33409119 C-7.42131448 69.81649821 -7.42131448 69.81649821 -8.05456543 74.30038452 C-8.3387799 76.32859174 -8.6296936 78.35574004 -8.921875 80.3828125 C-9.08268555 81.52121582 -9.24349609 82.65961914 -9.40917969 83.83251953 C-10.00434352 87.02328628 -10.90020213 89.94993231 -12 93 C-12.66 93 -13.32 93 -14 93 C-14.1005405 89.48108252 -13.70344709 86.4379738 -13 83 C-12.67854051 80.93887742 -12.36665756 78.87624676 -12.0625 76.8125 C-11.44342122 72.69772075 -10.74428471 68.63149224 -9.875 64.5625 C-9.12431675 60.96620348 -8.91434166 57.68330853 -9 54 C-8.69595322 52.32774271 -8.36871088 50.65919896 -8 49 C-8 48.34 -8 47.68 -8 47 C-7.34 47 -6.68 47 -6 47 C-5.9575415 46.19095215 -5.91508301 45.3819043 -5.87133789 44.54833984 C-5.27658146 34.79708477 -3.9613528 25.26652379 -2.4375 15.625 C-2.20065138 14.09903903 -1.9643205 12.57299761 -1.72851562 11.046875 C-1.15828395 7.36364052 -0.58114265 3.68153071 0 0 Z " fill="#1D3664" transform="translate(337,703)"/>
<path d="M0 0 C1.93137318 3.51922149 2.26919991 5.9620014 2 10 C1.67 10.33 1.34 10.66 1 11 C0.78640372 12.66130436 0.6298839 14.33006415 0.5 16 C0.19624517 19.64980413 -0.11217186 23.29555139 -0.5 26.9375 C-0.5721875 27.62714844 -0.644375 28.31679688 -0.71875 29.02734375 C-1 31 -1 31 -1.5 32.9296875 C-2.28908755 36.19700314 -2.44460297 39.51185411 -2.71875 42.85546875 C-3 45 -3 45 -4 46 C-4.18980148 47.57866627 -4.32519201 49.16393609 -4.4375 50.75 C-4.96858978 57.22423732 -5.97225763 63.58924635 -7 70 C-7.3446247 72.33196046 -7.67423104 74.66532245 -8 77 C-10.31244838 73.53132743 -10.16634318 72.73804419 -9.75415039 68.73339844 C-9.64402618 67.65924683 -9.53390198 66.58509521 -9.42044067 65.47839355 C-8.68487223 59.39288212 -7.83171714 53.32910794 -6.93359375 47.265625 C-6.73292003 45.89276739 -6.53257315 44.51986196 -6.33253479 43.14691162 C-5.81135545 39.5758538 -5.28581158 36.00545231 -4.75927734 32.43518066 C-4.22028368 28.77489023 -3.68552901 25.1139807 -3.15039062 21.453125 C-2.10434947 14.3014795 -1.05368509 7.15052373 0 0 Z " fill="#1B3667" transform="translate(200,771)"/>
<path d="M0 0 C0.99 0.33 1.98 0.66 3 1 C0.3954105 3.93920691 -2.63739547 5.69499515 -6 7.6875 C-11.36415171 10.91217492 -16.4492579 14.38862569 -21.46484375 18.140625 C-23.2458947 19.44691198 -25.06390926 20.70355289 -26.90625 21.921875 C-30.23455771 24.15755644 -33.39871377 26.54051954 -36.5625 29 C-37.11357422 29.42539062 -37.66464844 29.85078125 -38.23242188 30.2890625 C-40.7564986 32.2412547 -43.2583947 34.21175039 -45.7265625 36.234375 C-48.07101992 38.05515637 -50.20428204 39.04146813 -53 40 C-38.81098818 25.35327813 -22.05593672 14.1182007 -4.92260742 3.22998047 C-3.26940718 2.17235218 -1.63295008 1.08863339 0 0 Z " fill="#1351C6" transform="translate(690,335)"/>
<path d="M0 0 C0.99 0.495 0.99 0.495 2 1 C2 2.32 2 3.64 2 5 C2.66 5.66 3.32 6.32 4 7 C3.01 8.485 3.01 8.485 2 10 C2.66 10 3.32 10 4 10 C4.12375 11.216875 4.2475 12.43375 4.375 13.6875 C4.7939274 17.09876599 5.69393678 19.81647091 7 23 C7.144375 24.11375 7.28875 25.2275 7.4375 26.375 C7.93947425 29.60994515 8.79971361 31.95190953 10.16796875 34.890625 C11.9569988 39.42619414 12.90224768 44.25864422 14 49 C14.66 49 15.32 49 16 49 C16 51.31 16 53.62 16 56 C16.66 56.33 17.32 56.66 18 57 C18.36270588 58.99488234 18.69169075 60.99598989 19 63 C19.62225605 64.68375165 20.27544365 66.35767228 21 68 C18 67 18 67 16.96020508 65.05175781 C16.64978271 64.19420898 16.33936035 63.33666016 16.01953125 62.453125 C15.66375 61.47633789 15.30796875 60.49955078 14.94140625 59.49316406 C14.56886719 58.42291992 14.19632813 57.35267578 13.8125 56.25 C13.42320312 55.15139648 13.03390625 54.05279297 12.6328125 52.92089844 C-0.26603114 15.69583753 -0.26603114 15.69583753 0 0 Z " fill="#0A2E72" transform="translate(526,696)"/>
<path d="M0 0 C0.33 0 0.66 0 1 0 C0.30657175 5.66299738 -0.72333925 11.03623332 -2.99023438 16.29882812 C-4.14655959 19.392054 -4.68981387 22.33411247 -5.21875 25.59375 C-5.42886719 26.8725 -5.63898438 28.15125 -5.85546875 29.46875 C-6.07040125 30.81248581 -6.28524466 32.15623587 -6.5 33.5 C-6.71269531 34.799375 -6.92539062 36.09875 -7.14453125 37.4375 C-8.47788937 45.61761116 -9.75387134 53.80618191 -11 62 C-11.33 62 -11.66 62 -12 62 C-11.38912851 40.83014336 -10.06772549 19.11111844 0 0 Z " fill="#213B6B" transform="translate(264,356)"/>
<path d="M0 0 C1.05900513 0.21571655 1.05900513 0.21571655 2.1394043 0.43579102 C5.42618363 1.08405824 8.42000688 1.07835406 11.76953125 1.02734375 C13.07083984 1.01509766 14.37214844 1.00285156 15.71289062 0.99023438 C17.75993934 0.96551807 19.80683594 0.93759281 21.85375977 0.90405273 C29.22795762 0.79104162 35.94829672 0.69758728 43 3 C43 3.33 43 3.66 43 4 C36.18645023 4.02547651 29.37291288 4.04291982 22.55932617 4.05493164 C20.24421734 4.05994235 17.92911163 4.06675271 15.61401367 4.07543945 C12.27521996 4.08764842 8.93646831 4.09326108 5.59765625 4.09765625 C4.05961082 4.10539818 4.05961082 4.10539818 2.49049377 4.11329651 C-3.4242555 4.11375222 -9.1340069 3.76743866 -15 3 C-13 1 -13 1 -9.125 0.875 C-7.74985583 0.9116008 -6.3748385 0.95330737 -5 1 C-3.68 1 -2.36 1 -1 1 C-0.67 0.67 -0.34 0.34 0 0 Z " fill="#1752C8" transform="translate(837,971)"/>
<path d="M0 0 C0.66 0.33 1.32 0.66 2 1 C2 1.66 2 2.32 2 3 C-13.26851115 15.96589906 -32.88820481 24.38676529 -53 24 C-53 23.34 -53 22.68 -53 22 C-52.41734375 21.96261719 -51.8346875 21.92523437 -51.234375 21.88671875 C-38.96280848 20.90267804 -26.95479454 17.61099232 -16 12 C-15.34 12 -14.68 12 -14 12 C-13.67 11.34 -13.34 10.68 -13 10 C-11.21758369 8.62670974 -9.39943152 7.29946781 -7.5625 6 C-3.60175701 3.21224592 -3.60175701 3.21224592 0 0 Z " fill="#112B5E" transform="translate(279,932)"/>
<path d="M0 0 C1.65 0 3.3 0 5 0 C5 0.66 5 1.32 5 2 C5.84820313 2.26554687 6.69640625 2.53109375 7.5703125 2.8046875 C11.12740946 4.04440466 14.46593399 5.52482616 17.875 7.125 C19.02742187 7.66382813 20.17984375 8.20265625 21.3671875 8.7578125 C22.23601563 9.16773438 23.10484375 9.57765625 24 10 C24 10.66 24 11.32 24 12 C26.475 12.495 26.475 12.495 29 13 C29 13.66 29 14.32 29 15 C31.475 15.495 31.475 15.495 34 16 C34 16.66 34 17.32 34 18 C34.99 18 35.98 18 37 18 C37 18.66 37 19.32 37 20 C37.82564453 20.14308594 37.82564453 20.14308594 38.66796875 20.2890625 C41.61212953 21.18661235 43.75780169 22.66223197 46.3125 24.375 C53.13018806 29.10137704 53.13018806 29.10137704 61 31 C61 31.66 61 32.32 61 33 C51.80846332 32.79110144 44.45543185 26.72481737 37.17407227 21.6418457 C25.48672652 13.53645043 12.68285755 7.37667045 0 1 C0 0.67 0 0.34 0 0 Z " fill="#1B6FFB" transform="translate(941,426)"/>
<path d="M0 0 C0 0.66 0 1.32 0 2 C-9.44463938 6.89097396 -19.3077513 10.17915381 -29.375 13.5625 C-30.54289063 13.96146484 -31.71078125 14.36042969 -32.9140625 14.77148438 C-39.55723312 17.00201083 -46.08121227 18.86005112 -53 20 C-53 19.34 -53 18.68 -53 18 C-48.34808327 16.38855172 -43.82935445 14.96587089 -39 14 C-32.98330605 12.4312901 -32.98330605 12.4312901 -28 9 C-25.66666667 9 -23.33333333 9 -21 9 C-20.67 8.34 -20.34 7.68 -20 7 C-17.99609375 6.03515625 -17.99609375 6.03515625 -15.4375 5.0625 C-14.53902344 4.71832031 -13.64054688 4.37414062 -12.71484375 4.01953125 C-11.37099609 3.51486328 -11.37099609 3.51486328 -10 3 C-9.21753906 2.69449219 -8.43507813 2.38898437 -7.62890625 2.07421875 C-2.27132701 0 -2.27132701 0 0 0 Z " fill="#165BE5" transform="translate(988,945)"/>
<path d="M0 0 C0.66 0 1.32 0 2 0 C1 3 1 3 -0.69897461 4.10327148 C-1.42608643 4.43915283 -2.15319824 4.77503418 -2.90234375 5.12109375 C-4.10697266 5.68534058 -4.10697266 5.68534058 -5.3359375 6.26098633 C-6.19445312 6.64923584 -7.05296875 7.03748535 -7.9375 7.4375 C-9.24267578 8.040177 -9.24267578 8.040177 -10.57421875 8.6550293 C-16.31439573 11.2871969 -22.07333869 13.81486574 -28 16 C-28.87527344 16.33515625 -29.75054688 16.6703125 -30.65234375 17.015625 C-48.14416068 23.59038929 -48.14416068 23.59038929 -57 23 C-57 22.67 -57 22.34 -57 22 C-56.40058594 21.87625 -55.80117188 21.7525 -55.18359375 21.625 C-25.4794219 14.99384145 -25.4794219 14.99384145 0 0 Z " fill="#1966ED" transform="translate(961,831)"/>
<path d="M0 0 C0.66 0.33 1.32 0.66 2 1 C-21.09794414 28.47521951 -21.09794414 28.47521951 -31 33 C-29.41050558 28.78134186 -26.23997378 26.26418174 -22.9375 23.375 C-18.95679746 20.10808874 -18.95679746 20.10808874 -16 16 C-15.34 16 -14.68 16 -14 16 C-14 15.34 -14 14.68 -14 14 C-13.34 14 -12.68 14 -12 14 C-12 13.34 -12 12.68 -12 12 C-10.625 10.375 -10.625 10.375 -9 9 C-8.34 9 -7.68 9 -7 9 C-6.773125 8.443125 -6.54625 7.88625 -6.3125 7.3125 C-4.64103234 4.36753316 -2.44723648 2.31843456 0 0 Z " fill="#186FFA" transform="translate(1091,867)"/>
<path d="M0 0 C3.65228376 3.27960175 5.97337128 7.06437055 8.4375 11.25 C13.50805008 19.64727567 19.49713336 27.10468174 25.85180664 34.55810547 C27 36 27 36 28 38 C26.515 38.495 26.515 38.495 25 39 C23.36763346 36.94297722 21.74412995 34.87990147 20.125 32.8125 C19.66480469 32.23435547 19.20460938 31.65621094 18.73046875 31.06054688 C16.21199731 27.83033351 14.29255389 24.9445179 13 21 C12.34 21 11.68 21 11 21 C8.95830515 18.09451118 8 16.59857954 8 13 C7.01 12.67 6.02 12.34 5 12 C5 11.34 5 10.68 5 10 C4.34 9.67 3.68 9.34 3 9 C0 3.69230769 0 3.69230769 0 0 Z " fill="#153C8D" transform="translate(657,745)"/>
<path d="M0 0 C0.66 0 1.32 0 2 0 C1.76221123 14.31056075 -1.09670569 28.02579664 -4 42 C-4.66 41.67 -5.32 41.34 -6 41 C-4.02 27.47 -2.04 13.94 0 0 Z " fill="#213B68" transform="translate(368,498)"/>
<path d="M0 0 C-1.33182886 2.89943603 -2.8329463 5.16877099 -4.9375 7.5625 C-5.44152344 8.14128906 -5.94554687 8.72007812 -6.46484375 9.31640625 C-7.48179332 10.43168682 -8.52909376 11.52008244 -9.60546875 12.578125 C-11.49996108 14.50976424 -12.64531783 16.65535779 -14 19 C-14.83246563 20.29222606 -15.66587045 21.58384737 -16.5 22.875 C-18.75969656 26.46593773 -20.43982673 30.05850964 -22 34 C-22.33 34 -22.66 34 -23 34 C-23.71187404 23.97444059 -16.03939088 15.56319873 -9.92578125 8.203125 C-2.75531915 0 -2.75531915 0 0 0 Z " fill="#132F63" transform="translate(288,326)"/>
<path d="M0 0 C2.40216309 0.00538547 4.8041412 0.0000092 7.20629883 -0.00634766 C22.80372414 -0.01562596 22.80372414 -0.01562596 29.20825195 1.13037109 C29.70325195 2.12037109 29.70325195 2.12037109 30.20825195 3.13037109 C27.56235181 3.15721788 24.916721 3.17713466 22.27075195 3.19287109 C21.13863281 3.20543945 21.13863281 3.20543945 19.98364258 3.21826172 C18.05830882 3.2268955 16.13289614 3.18261442 14.20825195 3.13037109 C13.71325195 2.63537109 13.71325195 2.63537109 13.20825195 2.13037109 C10.17847391 2.04165837 7.17158173 2.01517759 4.1418457 2.03271484 C3.23322281 2.03412979 2.32459991 2.03554474 1.38844299 2.03700256 C-1.52582025 2.04261916 -4.44000786 2.05517445 -7.35424805 2.06787109 C-9.32495007 2.07288396 -11.29565328 2.07744723 -13.26635742 2.08154297 C-18.10818363 2.09259398 -22.949953 2.10986971 -27.79174805 2.13037109 C-27.79174805 1.80037109 -27.79174805 1.47037109 -27.79174805 1.13037109 C-18.51638884 0.12904743 -9.31608896 -0.02485055 0 0 Z " fill="#5298FB" transform="translate(857.791748046875,288.86962890625)"/>
<path d="M0 0 C0.66 0.33 1.32 0.66 2 1 C0.98421875 1.61746094 -0.0315625 2.23492187 -1.078125 2.87109375 C-9.74713475 8.1866768 -17.96355602 13.75867886 -26 20 C-27.58097348 21.19063997 -29.16400884 22.37855205 -30.75 23.5625 C-31.38421875 24.03816406 -32.0184375 24.51382812 -32.671875 25.00390625 C-33.11015625 25.33261719 -33.5484375 25.66132813 -34 26 C-34 25.01 -34 24.02 -34 23 C-32.37064759 21.62131719 -30.70250393 20.28725907 -29 19 C-28.67 18.34 -28.34 17.68 -28 17 C-26.34634594 15.97862543 -24.67623498 14.98387706 -23 14 C-21.20057784 12.68200219 -19.41829936 11.34570924 -17.6484375 9.98828125 C-16 9 -16 9 -13 9 C-13 8.34 -13 7.68 -13 7 C-12.34 7 -11.68 7 -11 7 C-11 6.34 -11 5.68 -11 5 C-9.21289414 4.13633178 -7.4201535 3.28431406 -5.625 2.4375 C-4.62726562 1.96183594 -3.62953125 1.48617188 -2.6015625 0.99609375 C-1.74304688 0.66738281 -0.88453125 0.33867187 0 0 Z " fill="#1154CE" transform="translate(742,437)"/>
<path d="M0 0 C2.64 0 5.28 0 8 0 C8.495 1.98 8.495 1.98 9 4 C-9.15 4 -27.3 4 -46 4 C-46 3.67 -46 3.34 -46 3 C-23.725 2.505 -23.725 2.505 -1 2 C-0.67 1.34 -0.34 0.68 0 0 Z " fill="#001257" transform="translate(507,659)"/>
<path d="M0 0 C-0.33 0.66 -0.66 1.32 -1 2 C-1.55461914 2.02505615 -2.10923828 2.0501123 -2.68066406 2.07592773 C-5.20398843 2.19227927 -7.72697536 2.31482754 -10.25 2.4375 C-11.55904297 2.49647461 -11.55904297 2.49647461 -12.89453125 2.55664062 C-13.73886719 2.59853516 -14.58320312 2.64042969 -15.453125 2.68359375 C-16.22817383 2.72025146 -17.00322266 2.75690918 -17.80175781 2.79467773 C-20.01356213 2.94295931 -20.01356213 2.94295931 -22.15917969 3.55493164 C-24 4 -24 4 -26 3.4375 C-28.01701646 2.76680905 -28.01701646 2.76680905 -29.703125 3.93359375 C-32.73828746 5.34277632 -35.41998666 5.4251992 -38.75 5.625 C-39.92046875 5.69976562 -41.0909375 5.77453125 -42.296875 5.8515625 C-43.18890625 5.90054687 -44.0809375 5.94953125 -45 6 C-43 3 -43 3 -40.88623047 2.29150391 C-33.29743249 1.0288064 -25.81029984 0.57768923 -18.125 0.375 C-16.92875 0.33632813 -15.7325 0.29765625 -14.5 0.2578125 C-9.66494473 0.106379 -4.83769489 -0.02112531 0 0 Z " fill="#1C73FA" transform="translate(851,290)"/>
<path d="M0 0 C5.29428557 -0.31093423 9.61572073 0.82054365 14.625 2.3125 C16.21839547 2.77206434 17.81214756 3.23039397 19.40625 3.6875 C20.18355469 3.91179687 20.96085938 4.13609375 21.76171875 4.3671875 C26.4763236 5.70011243 31.23773736 6.85145431 36 8 C36 8.66 36 9.32 36 10 C33.14977582 10.16286995 31.22675361 10.09302712 28.5625 9 C25.56641052 7.83079435 23.18835189 7.85170456 20 8 C19.67 7.01 19.34 6.02 19 5 C18.12988281 5.05220703 18.12988281 5.05220703 17.2421875 5.10546875 C11.87119124 5.29159238 8.80975869 4.57266163 4 2 C1.70112992 2.19530151 1.70112992 2.19530151 0 3 C0 2.01 0 1.02 0 0 Z " fill="#126AFA" transform="translate(926,296)"/>
<path d="M0 0 C1.14570465 0.0028299 2.2914093 0.00565979 3.47183228 0.00857544 C7.11935005 0.01974115 10.76661935 0.04483951 14.4140625 0.0703125 C16.89192353 0.08034695 19.36978842 0.08947199 21.84765625 0.09765625 C27.91154264 0.1196687 33.97528481 0.15311056 40.0390625 0.1953125 C39.7090625 0.8553125 39.3790625 1.5153125 39.0390625 2.1953125 C37.78359619 2.19007568 36.52812988 2.18483887 35.23461914 2.17944336 C30.54370852 2.16124183 25.85280098 2.14982544 21.16186523 2.14038086 C19.13777134 2.13537512 17.11368102 2.12856854 15.08959961 2.11987305 C12.16779698 2.10764191 9.24604246 2.10204645 6.32421875 2.09765625 C5.43009781 2.09249496 4.53597687 2.08733368 3.61476135 2.08201599 C-3.35734705 2.0814038 -10.19851868 2.39066312 -16.9609375 4.1953125 C-17.2909375 3.5353125 -17.6209375 2.8753125 -17.9609375 2.1953125 C-12.06651589 -0.38964629 -6.30688183 -0.05883874 0 0 Z " fill="#001750" transform="translate(351.9609375,297.8046875)"/>
<path d="M0 0 C2.09375 0.4296875 2.09375 0.4296875 4 1 C-3.66666667 8.66666667 -11.33333333 16.33333333 -19 24 C-19.33 23.34 -19.66 22.68 -20 22 C-18.92544498 18.77633495 -18.29693158 18.17361888 -15.75 16.125 C-10.94439154 12.14489483 -6.86686325 7.89802678 -3 3 C-1.5 1.125 -1.5 1.125 0 0 Z " fill="#114BB8" transform="translate(703,463)"/>
<path d="M0 0 C1.93137318 3.51922149 2.26919991 5.9620014 2 10 C1.67 10.33 1.34 10.66 1 11 C0.78640372 12.66130436 0.6298839 14.33006415 0.5 16 C0.41492188 16.99515625 0.32984375 17.9903125 0.2421875 19.015625 C0.09430111 20.83796695 -0.04779413 22.66080578 -0.1796875 24.484375 C-0.61753129 29.56336302 -1.75545397 33.41331898 -4 38 C-5.48351794 34.01389101 -4.64964075 30.24859038 -4.00390625 26.171875 C-3.89151108 25.42286926 -3.77911591 24.67386353 -3.66331482 23.90216064 C-3.30367627 21.51693213 -2.93324386 19.13352503 -2.5625 16.75 C-2.3163431 15.13031671 -2.07089216 13.51052597 -1.82617188 11.890625 C-1.22562393 7.92579118 -0.61539213 3.96255581 0 0 Z " fill="#1E396B" transform="translate(200,771)"/>
<path d="M0 0 C17.03355705 14.13422819 17.03355705 14.13422819 19 22 C18.96183076 25.84873182 18.73624839 29.52750322 17 33 C16.34 32.67 15.68 32.34 15 32 C15.33 30.35 15.66 28.7 16 27 C16.66 27 17.32 27 18 27 C16.27247654 19.71259507 13.3874038 15.64866342 7.875 10.6875 C6.59501661 9.51098832 5.32128015 8.32763448 4.0546875 7.13671875 C3.49249512 6.62842529 2.93030273 6.12013184 2.35107422 5.59643555 C0.79762826 3.76087661 0.402102 2.34686544 0 0 Z " fill="#146FFA" transform="translate(1074,365)"/>
<path d="M0 0 C-5.51030333 2.05940629 -11.10767031 3.0827115 -16.875 4.125 C-17.83019531 4.30675781 -18.78539062 4.48851562 -19.76953125 4.67578125 C-25.27669496 5.68051757 -30.40332173 6.19846377 -36 6 C-36 5.67 -36 5.34 -36 5 C-34.35 5 -32.7 5 -31 5 C-31 4.34 -31 3.68 -31 3 C-27.93702143 2.5217276 -24.87337651 2.04863016 -21.80859375 1.58203125 C-19.25778218 1.19221492 -16.7082865 0.79369378 -14.16015625 0.38671875 C-12.93167969 0.19722656 -11.70320312 0.00773438 -10.4375 -0.1875 C-9.30183594 -0.36667969 -8.16617188 -0.54585937 -6.99609375 -0.73046875 C-4.27907541 -0.97489413 -2.54863354 -0.87862428 0 0 Z " fill="#1653D7" transform="translate(921,968)"/>
<path d="M0 0 C0.66 0.33 1.32 0.66 2 1 C2.98005991 4.93889305 2.99667055 8.05311542 2 12 C-1.54715243 17.46754916 -6.75548923 21.78676872 -11.5 26.1875 C-12.80328082 27.43554607 -14.10409158 28.68617694 -15.40234375 29.93945312 C-18.57378793 32.99026249 -21.77687633 36.00387923 -25 39 C-25.66 38.67 -26.32 38.34 -27 38 C-26.25314941 37.26885986 -25.50629883 36.53771973 -24.73681641 35.78442383 C-21.95979381 33.06182769 -19.19281493 30.32921152 -16.42871094 27.59350586 C-15.23252243 26.41237495 -14.03365136 25.23395425 -12.83203125 24.05834961 C-11.10219079 22.36502482 -9.3823308 20.66208789 -7.6640625 18.95703125 C-7.12754059 18.43599319 -6.59101868 17.91495514 -6.03823853 17.37812805 C-2.49305892 13.83455389 -0.24617868 10.82120772 0.1953125 5.76171875 C0.17210937 5.07722656 0.14890625 4.39273437 0.125 3.6875 C0.08375 2.470625 0.0425 1.25375 0 0 Z " fill="#C9E3FE" transform="translate(1092,385)"/>
<path d="M0 0 C11.45974826 2.17340053 22.24860384 6.5656684 33 11 C31.375 12.14453125 31.375 12.14453125 29 13 C26.125 12.13671875 26.125 12.13671875 23 10.6875 C18.13252122 8.45244317 18.13252122 8.45244317 13 7 C13 6.34 13 5.68 13 5 C12.01 5.33 11.02 5.66 10 6 C7.51953125 5.22265625 7.51953125 5.22265625 4.8125 4.0625 C3.91144531 3.68222656 3.01039063 3.30195313 2.08203125 2.91015625 C1.39496094 2.60980469 0.70789063 2.30945313 0 2 C0 1.34 0 0.68 0 0 Z " fill="#2177FB" transform="translate(963,305)"/>
<path d="M0 0 C0.495 0.99 0.495 0.99 1 2 C-10.76932339 8.89902399 -22.48535589 15.54046248 -35 21 C-35 20.34 -35 19.68 -35 19 C-33.71086513 18.32845067 -32.41859796 17.66291141 -31.125 17 C-30.40570312 16.62875 -29.68640625 16.2575 -28.9453125 15.875 C-27 15 -27 15 -25 15 C-24.67 14.34 -24.34 13.68 -24 13 C-22.0201901 11.9605998 -20.01418 10.9711225 -18 10 C-14.98287311 8.36407191 -11.99391331 6.67796122 -9 5 C-7.31286186 4.06184894 -5.62537542 3.12432393 -3.9375 2.1875 C-3.18339844 1.76855469 -2.42929687 1.34960938 -1.65234375 0.91796875 C-1.10707031 0.61503906 -0.56179688 0.31210937 0 0 Z " fill="#0E5FF6" transform="translate(1024,925)"/>
<path d="M0 0 C13.35779817 10.78899083 13.35779817 10.78899083 15 19 C15.41555469 24.08602802 15.39195011 28.36559666 13 33 C12 30 12 30 12.5625 26.6875 C13.03476097 22.70701469 12.3937897 20.68944333 11 17 C11 15.68 11 14.36 11 13 C10.34 12.67 9.68 12.34 9 12 C7.6365765 10.54852207 6.30743441 9.06460754 5 7.5625 C3.03986864 5.31771721 1.10734887 3.10734887 -1 1 C-0.67 0.67 -0.34 0.34 0 0 Z " fill="#156FFB" transform="translate(1089,824)"/>
<path d="M0 0 C0.33 0 0.66 0 1 0 C0.52835157 7.09099019 -0.39383494 14.09960601 -1.4375 21.125 C-1.62082886 22.37651855 -1.62082886 22.37651855 -1.80786133 23.65332031 C-2.64328007 29.16632401 -3.73777964 34.56862754 -5 40 C-5.33 40 -5.66 40 -6 40 C-5.67009151 30.77905765 -4.45162277 21.78989926 -3 12.6875 C-2.82178711 11.55965088 -2.64357422 10.43180176 -2.45996094 9.26977539 C-1.12897154 1.12897154 -1.12897154 1.12897154 0 0 Z " fill="#193363" transform="translate(394,335)"/>
<path d="M0 0 C10.74730045 -0.45986864 20.50755115 0.86594261 31 3 C30.67 3.66 30.34 4.32 30 5 C29.0925 4.814375 28.185 4.62875 27.25 4.4375 C24.1562534 3.81366385 24.1562534 3.81366385 21.8125 4.5625 C21.214375 4.706875 20.61625 4.85125 20 5 C19.01 4.34 18.02 3.68 17 3 C15.00043389 2.95834237 12.99956611 2.95834237 11 3 C10.01 2.67 9.02 2.34 8 2 C5.6593935 2.27769908 3.32375692 2.60539977 1 3 C0.67 2.01 0.34 1.02 0 0 Z " fill="#3989FB" transform="translate(889,291)"/>
<path d="M0 0 C0.33 0 0.66 0 1 0 C1.52030833 11.08064039 0.52730394 22.41808817 -3 33 C-3.66 33 -4.32 33 -5 33 C-5.1005405 29.48108252 -4.70344709 26.4379738 -4 23 C-3.67854051 20.93887742 -3.36665756 18.87624676 -3.0625 16.8125 C-2.20761408 11.16896739 -1.18465442 5.58299901 0 0 Z " fill="#112A5B" transform="translate(328,763)"/>
<path d="M0 0 C0.33 0 0.66 0 1 0 C1.30358452 7.60437058 0.40531527 14.66163649 -1 22.125 C-1.28617187 23.7028125 -1.28617187 23.7028125 -1.578125 25.3125 C-2.04431283 27.87653309 -2.51837947 30.43882915 -3 33 C-3.66 33 -4.32 33 -5 33 C-4.5692502 25.55842586 -3.65514842 18.23359448 -2.5 10.875 C-2.30410278 9.61272583 -2.30410278 9.61272583 -2.10424805 8.32495117 C-1.12726284 2.25452568 -1.12726284 2.25452568 0 0 Z " fill="#1A3463" transform="translate(375,457)"/>
<path d="M0 0 C-3.87748861 3.22081715 -8.30176221 5.37485896 -12.75 7.6875 C-13.54277344 8.10322266 -14.33554687 8.51894531 -15.15234375 8.94726562 C-17.09994207 9.96799486 -19.04917449 10.9854562 -21 12 C-21.99 11.34 -22.98 10.68 -24 10 C-20.76114441 8.12583577 -17.5073541 6.27929595 -14.25 4.4375 C-13.32960938 3.90447266 -12.40921875 3.37144531 -11.4609375 2.82226562 C-10.57148437 2.32275391 -9.68203125 1.82324219 -8.765625 1.30859375 C-7.94868164 0.84251709 -7.13173828 0.37644043 -6.29003906 -0.10375977 C-3.68369069 -1.12379227 -2.57593987 -0.97502945 0 0 Z " fill="#1E5ED7" transform="translate(716,324)"/>
<path d="M0 0 C-1.98 0.33 -3.96 0.66 -6 1 C-6 1.66 -6 2.32 -6 3 C-8.88744312 4.20866585 -11.78599827 5.38802937 -14.6875 6.5625 C-15.50412109 6.90474609 -16.32074219 7.24699219 -17.16210938 7.59960938 C-24.67644333 10.61142744 -24.67644333 10.61142744 -29 9 C-24.66670602 6.11113734 -19.93459689 4.60091225 -15.0625 2.8125 C-14.06025391 2.43158203 -13.05800781 2.05066406 -12.02539062 1.65820312 C-10.57616211 1.12549805 -10.57616211 1.12549805 -9.09765625 0.58203125 C-8.21601807 0.25436768 -7.33437988 -0.0732959 -6.42602539 -0.41088867 C-3.83547669 -1.03995117 -2.48152298 -0.88386465 0 0 Z " fill="#0852E2" transform="translate(763,305)"/>
<path d="M0 0 C2.71416245 4.07124368 2.52988166 7.33078304 1.58203125 12.10546875 C1.22983162 13.60165516 0.87156159 15.0964232 0.5078125 16.58984375 C-0.20742512 19.98447153 -0.48519499 23.38107841 -0.75390625 26.8359375 C-1 29 -1 29 -2 32 C-2.66 32 -3.32 32 -4 32 C-2.85960382 21.29968686 -1.60824518 10.64179257 0 0 Z " fill="#1E386A" transform="translate(189,847)"/>
<path d="M0 0 C0.6875 1.6875 0.6875 1.6875 1 4 C0.04060332 5.69036558 -0.96642853 7.35394174 -2 9 C-2.72640955 11.31543043 -3.38431458 13.65269935 -4 16 C-4.46700859 17.75328368 -4.9467707 19.5032071 -5.4375 21.25 C-5.66308594 22.08015625 -5.88867188 22.9103125 -6.12109375 23.765625 C-7.05814116 26.14780774 -8.07455125 27.34808297 -10 29 C-9.46451953 23.16848706 -8.25895092 18.25147246 -6.125 12.8125 C-5.86847656 12.12736328 -5.61195313 11.44222656 -5.34765625 10.73632812 C-3.88202873 6.91023016 -2.24003652 3.45394852 0 0 Z " fill="#2368E7" transform="translate(879,708)"/>
<path d="M0 0 C0.66 0.33 1.32 0.66 2 1 C-0.80328362 9.35020652 -8.15430086 15.73407758 -15 21 C-15.99 20.34 -16.98 19.68 -18 19 C-17.49210938 18.64808594 -16.98421875 18.29617188 -16.4609375 17.93359375 C-9.47429475 12.9225747 -4.58221819 7.22580561 0 0 Z " fill="#153E87" transform="translate(539,520)"/>
<path d="M0 0 C4.46906856 0.54037085 7.67738477 1.64981849 11.58203125 3.87109375 C12.59587891 4.44537109 13.60972656 5.01964844 14.65429688 5.61132812 C15.69650391 6.21396484 16.73871094 6.81660156 17.8125 7.4375 C18.87404297 8.03626953 19.93558594 8.63503906 21.02929688 9.25195312 C28.86414717 13.72829433 28.86414717 13.72829433 30 16 C25.25 15.125 25.25 15.125 23 14 C23 13.34 23 12.68 23 12 C20.03 11.505 20.03 11.505 17 11 C17 10.34 17 9.68 17 9 C15.6696875 8.8453125 15.6696875 8.8453125 14.3125 8.6875 C10.9173245 7.98284093 8.78057902 7.0445434 6 5 C6 4.34 6 3.68 6 3 C5.195625 2.87625 4.39125 2.7525 3.5625 2.625 C2.716875 2.41875 1.87125 2.2125 1 2 C0.67 1.34 0.34 0.68 0 0 Z " fill="#0C68FA" transform="translate(1006,322)"/>
<path d="M0 0 C0.33 0 0.66 0 1 0 C1.62475782 11.17622319 -0.2556359 21.99566055 -2 33 C-2.33 33 -2.66 33 -3 33 C-3 26.73 -3 20.46 -3 14 C-2.34 14 -1.68 14 -1 14 C-1.66 12.02 -2.32 10.04 -3 8 C-2.34 8 -1.68 8 -1 8 C-1.020625 6.865625 -1.04125 5.73125 -1.0625 4.5625 C-1 1 -1 1 0 0 Z " fill="#263D6B" transform="translate(317,839)"/>
<path d="M0 0 C0.33 0 0.66 0 1 0 C0.33432507 11.08693071 -1.36035171 22.02376553 -3 33 C-3.33 33 -3.66 33 -4 33 C-4.6165876 21.38760013 -2.87955046 11.22253373 0 0 Z " fill="#1B3567" transform="translate(247,447)"/>
<path d="M0 0 C1.98828125 1.1171875 1.98828125 1.1171875 4 3 C4.35546875 5.8828125 4.35546875 5.8828125 4.1875 9.125 C4.10066069 11.08240508 4.03216378 13.04093359 4 15 C4.33 15.33 4.66 15.66 5 16 C4.71269945 18.33944736 4.38063221 20.6739143 4 23 C2.37667572 20.09996873 1.67946014 17.75429294 1.3671875 14.453125 C1.28339844 13.60878906 1.19960938 12.76445313 1.11328125 11.89453125 C1.03464844 11.02183594 0.95601562 10.14914062 0.875 9.25 C0.78863281 8.36183594 0.70226562 7.47367188 0.61328125 6.55859375 C0.40176934 4.37297064 0.19759773 2.18691762 0 0 Z " fill="#0A2C6C" transform="translate(521,667)"/>
<path d="M0 0 C0.66 0.33 1.32 0.66 2 1 C1.01 2.485 1.01 2.485 0 4 C-0.43251903 6.05188877 -0.77784996 8.12273473 -1.0703125 10.19921875 C-1.24433594 11.40771484 -1.41835938 12.61621094 -1.59765625 13.86132812 C-1.77167969 15.12396484 -1.94570313 16.38660156 -2.125 17.6875 C-2.30675781 18.96173828 -2.48851562 20.23597656 -2.67578125 21.54882812 C-3.12402317 24.69831741 -3.56513331 27.84864076 -4 31 C-4.33 31 -4.66 31 -5 31 C-5.33 28.69 -5.66 26.38 -6 24 C-5.34 24 -4.68 24 -4 24 C-4.20625 23.0925 -4.4125 22.185 -4.625 21.25 C-5.68406798 13.83652414 -4.13216949 6.19825423 0 0 Z " fill="#253C69" transform="translate(345,665)"/>
<path d="M0 0 C0.66 0.33 1.32 0.66 2 1 C-7.07104993 5.85821054 -14.62466751 7.92468975 -25 7 C-27.3359375 5.98828125 -27.3359375 5.98828125 -29 5 C-26.1699029 4.25085665 -24.26401571 3.94342521 -21.375 4.5625 C-15.08573114 5.37777559 -8.69190003 3.92485315 -2.9375 1.3125 C-1.968125 0.879375 -0.99875 0.44625 0 0 Z " fill="#0F68FC" transform="translate(1031,454)"/>
<path d="M0 0 C0.33 0 0.66 0 1 0 C0.41152509 11.12014652 -1.25821357 22.01250447 -3 33 C-3.33 33 -3.66 33 -4 33 C-3.8598002 29.64557336 -3.71181572 26.29153225 -3.5625 22.9375 C-3.52318359 21.99455078 -3.48386719 21.05160156 -3.44335938 20.08007812 C-3.21274604 14.98884522 -2.8300873 10.02935244 -2 5 C-1.34 5 -0.68 5 0 5 C0 3.35 0 1.7 0 0 Z " fill="#173265" transform="translate(256,385)"/>
<path d="M0 0 C0 0.66 0 1.32 0 2 C-1.175625 2.268125 -2.35125 2.53625 -3.5625 2.8125 C-6.45353704 3.51738182 -9.00748015 4.40061822 -11.6875 5.6875 C-15.14297616 7.05665093 -16.53972794 7.15342402 -20 6 C-17.55200137 3.55200137 -15.52399884 2.97447722 -12.25 1.875 C-11.22390625 1.52179688 -10.1978125 1.16859375 -9.140625 0.8046875 C-5.95772656 -0.01083125 -3.26995674 -0.14685434 0 0 Z " fill="#1F3B6C" transform="translate(333,301)"/>
<path d="M0 0 C0.66 0.33 1.32 0.66 2 1 C2 3.97 2 6.94 2 10 C2.99 10 3.98 10 5 10 C5.66 11.32 6.32 12.64 7 14 C4.6875 14.3125 4.6875 14.3125 2 14 C-0.65795665 11.06708232 -1.18788128 8.58755622 -1.25 4.75 C-1 1 -1 1 0 0 Z " fill="#153060" transform="translate(176,941)"/>
<path d="M0 0 C7.42937127 -0.48717189 13.24034638 0.83394001 20 4 C20.66 4.66 21.32 5.32 22 6 C18.97922426 5.57849641 16.39454403 5.18688928 13.625 3.875 C9.81995447 2.60665149 6.93424141 3.33317942 3 4 C2.67 3.01 2.34 2.02 2 1 C1.34 0.67 0.68 0.34 0 0 Z " fill="#0D6BFC" transform="translate(1032,784)"/>
<path d="M0 0 C-3.09318717 2.06212478 -5.22741071 2.67024349 -8.8125 3.5 C-12.95557329 4.48931568 -16.98827866 5.55132285 -21 7 C-21.33 6.34 -21.66 5.68 -22 5 C-14.44304306 1.72960132 -8.28676624 -0.70226833 0 0 Z " fill="#1660EC" transform="translate(782,300)"/>
<path d="M0 0 C0.66 1.32 1.32 2.64 2 4 C1.67 4.33 1.34 4.66 1 5 C1.33 5 1.66 5 2 5 C2 10.61 2 16.22 2 22 C1.01 21.67 0.02 21.34 -1 21 C-1.0269501 18.06243881 -1.04681474 15.12512445 -1.0625 12.1875 C-1.07087891 11.35412109 -1.07925781 10.52074219 -1.08789062 9.66210938 C-1.09111328 8.85966797 -1.09433594 8.05722656 -1.09765625 7.23046875 C-1.10289307 6.49207764 -1.10812988 5.75368652 -1.11352539 4.99291992 C-1 3 -1 3 0 0 Z " fill="#1B3767" transform="translate(742,589)"/>
<path d="M0 0 C1.32 0 2.64 0 4 0 C4 0.66 4 1.32 4 2 C4.61488281 2.13277344 5.22976563 2.26554688 5.86328125 2.40234375 C6.67152344 2.57894531 7.47976563 2.75554688 8.3125 2.9375 C9.11300781 3.11152344 9.91351562 3.28554688 10.73828125 3.46484375 C13 4 13 4 16 5 C15.67 5.99 15.34 6.98 15 8 C9.53262809 6.25192871 4.24175152 4.34205919 -1 2 C-0.67 1.34 -0.34 0.68 0 0 Z " fill="#254C9B" transform="translate(723,945)"/>
<path d="M0 0 C0.66 0.33 1.32 0.66 2 1 C-1.34685757 6.02028635 -7.41544664 7.22928796 -13 9 C-13.66 8.34 -14.32 7.68 -15 7 C-12.54595776 5.80283341 -10.08748321 4.6170654 -7.625 3.4375 C-6.57699219 2.92413086 -6.57699219 2.92413086 -5.5078125 2.40039062 C-3.69947784 1.53969288 -1.85148044 0.76347564 0 0 Z " fill="#2A69E0" transform="translate(732,314)"/>
<path d="M0 0 C0.99 0.33 1.98 0.66 3 1 C-2.55637669 5.50547245 -8.12662475 9.91417374 -14 14 C-14.66 13.67 -15.32 13.34 -16 13 C-13.71046156 11.01832378 -11.41850202 9.03957953 -9.125 7.0625 C-8.47402344 6.49853516 -7.82304688 5.93457031 -7.15234375 5.35351562 C-6.21455078 4.54624023 -6.21455078 4.54624023 -5.2578125 3.72265625 C-4.6817627 3.22515869 -4.10571289 2.72766113 -3.51220703 2.21508789 C-2 1 -2 1 0 0 Z " fill="#134EBA" transform="translate(653,361)"/>
<path d="M0 0 C-8.17160967 4.47125812 -16.57186418 7.62854239 -26 7 C-26 6.67 -26 6.34 -26 6 C-25.27296875 5.82984375 -24.5459375 5.6596875 -23.796875 5.484375 C-17.18057164 3.88967624 -10.79840036 1.98997178 -4.3984375 -0.328125 C-2 -1 -2 -1 0 0 Z " fill="#3072E8" transform="translate(930,847)"/>
<path d="M0 0 C0.93979382 3.03856659 0.99875808 5.20695472 0.44140625 8.328125 C0.30283203 9.12734375 0.16425781 9.9265625 0.02148438 10.75 C-0.12998047 11.575 -0.28144531 12.4 -0.4375 13.25 C-0.58509766 14.09046875 -0.73269531 14.9309375 -0.88476562 15.796875 C-1.2491936 17.86588544 -1.62362541 19.93312939 -2 22 C-2.33 22 -2.66 22 -3 22 C-3.19644384 20.10507254 -3.38177288 18.20899097 -3.5625 16.3125 C-3.66691406 15.25675781 -3.77132813 14.20101562 -3.87890625 13.11328125 C-3.99323712 10.17387154 -3.67267645 7.84517225 -3 5 C-3 4.34 -3 3.68 -3 3 C-2.01 3 -1.02 3 0 3 C0 2.01 0 1.02 0 0 Z " fill="#2D4774" transform="translate(332,747)"/>
<path d="M0 0 C0.66 0 1.32 0 2 0 C2.2361959 6.40353322 1.823321 11.84629161 0 18 C-0.66 18 -1.32 18 -2 18 C-2.33 18.66 -2.66 19.32 -3 20 C-2.55325707 16.35159938 -1.98969446 12.96544613 -0.9375 9.4375 C-0.02948308 6.10810461 0.16721405 3.42788808 0 0 Z " fill="#092658" transform="translate(312,866)"/>
<path d="M0 0 C3.44127061 1.5445703 6.18696142 3.582684 9.125 5.9375 C9.99382812 6.62714844 10.86265625 7.31679688 11.7578125 8.02734375 C14 10 14 10 16 13 C12.15283464 12.43037415 10.23633282 10.68137403 7.4375 8.0625 C5.00009576 5.7977281 2.77642407 3.85094938 0 2 C0 1.34 0 0.68 0 0 Z " fill="#0B69FB" transform="translate(1057,352)"/>
<path d="M0 0 C0.33 0 0.66 0 1 0 C1.36532144 2.85313024 1.71751313 5.70689904 2.0625 8.5625 C2.16626953 9.36236328 2.27003906 10.16222656 2.37695312 10.98632812 C2.96060719 15.91719864 2.93682483 20.11933915 2 25 C0.16930097 21.87070822 -0.23931181 19.62356854 -0.1953125 16.015625 C-0.18886719 15.08105469 -0.18242188 14.14648438 -0.17578125 13.18359375 C-0.15902344 12.21550781 -0.14226563 11.24742187 -0.125 10.25 C-0.11597656 9.26644531 -0.10695313 8.28289063 -0.09765625 7.26953125 C-0.07412785 4.84610593 -0.04125368 2.42317778 0 0 Z " fill="#2B6CE9" transform="translate(891,591)"/>
<path d="M0 0 C5.97873264 0.11935764 5.97873264 0.11935764 7.08984375 1.23046875 C9.43971637 1.46574648 11.79540414 1.64433292 14.15234375 1.79296875 C15.44269531 1.87675781 16.73304688 1.96054687 18.0625 2.046875 C19.56103516 2.13775391 19.56103516 2.13775391 21.08984375 2.23046875 C21.08984375 2.56046875 21.08984375 2.89046875 21.08984375 3.23046875 C4.3814155 3.414979 4.3814155 3.414979 -3.91015625 2.23046875 C-1.91015625 0.23046875 -1.91015625 0.23046875 0 0 Z " fill="#3564C5" transform="translate(825.91015625,971.76953125)"/>
<path d="M0 0 C0 0.66 0 1.32 0 2 C-12.82943854 8.8645827 -12.82943854 8.8645827 -19 7 C-3.64974619 0 -3.64974619 0 0 0 Z " fill="#115CED" transform="translate(988,945)"/>
<path d="M0 0 C0.99 0.33 1.98 0.66 3 1 C-0.3 4.3 -3.6 7.6 -7 11 C-7.66 10.34 -8.32 9.68 -9 9 C-7.87895467 7.68412059 -6.75303035 6.37239647 -5.625 5.0625 C-4.99851562 4.33160156 -4.37203125 3.60070312 -3.7265625 2.84765625 C-2 1 -2 1 0 0 Z " fill="#1560E8" transform="translate(893,692)"/>
<path d="M0 0 C0.66 0.33 1.32 0.66 2 1 C2 1.66 2 2.32 2 3 C0.217871 4.44074715 -1.62660276 5.80510649 -3.5 7.125 C-5.03140625 8.21167969 -5.03140625 8.21167969 -6.59375 9.3203125 C-7.3878125 9.87460937 -8.181875 10.42890625 -9 11 C-9.66 10.01 -10.32 9.02 -11 8 C-10.37351562 7.59007812 -9.74703125 7.18015625 -9.1015625 6.7578125 C-8.28429687 6.21898437 -7.46703125 5.68015625 -6.625 5.125 C-5.40683594 4.32449219 -5.40683594 4.32449219 -4.1640625 3.5078125 C-1.92405904 2.04134945 -1.92405904 2.04134945 0 0 Z " fill="#153160" transform="translate(279,932)"/>
<path d="M0 0 C0.33 0.99 0.66 1.98 1 3 C-0.55444652 4.46691458 -2.11892175 5.92320641 -3.6875 7.375 C-4.55761719 8.18710937 -5.42773438 8.99921875 -6.32421875 9.8359375 C-8.86371107 11.88977509 -10.92025866 12.9900668 -14 14 C-10.12814498 9.03918575 -5.79125711 5.06361292 -1 1 C-0.67 0.67 -0.34 0.34 0 0 Z " fill="#194CB1" transform="translate(636,375)"/>
<path d="M0 0 C0.99 0.495 0.99 0.495 2 1 C2 2.32 2 3.64 2 5 C2.66 5.66 3.32 6.32 4 7 C3.01 8.485 3.01 8.485 2 10 C2.66 10 3.32 10 4 10 C3.67 12.31 3.34 14.62 3 17 C-0.10465605 11.41161911 -0.10585301 6.24532781 0 0 Z " fill="#123579" transform="translate(526,696)"/>
<path d="M0 0 C1.67299959 0.65061095 3.33859237 1.32033324 5 2 C5.66 2.268125 6.32 2.53625 7 2.8125 C9.77440214 4.45980127 11.75325962 6.69709111 14 9 C15.31175986 10.02813611 16.6369893 11.04084432 18 12 C12.94563405 11.54310816 10.00641686 9.06535132 6.1875 6 C5.59001953 5.5359375 4.99253906 5.071875 4.37695312 4.59375 C2.89298446 3.42692664 1.44309213 2.21701474 0 1 C0 0.67 0 0.34 0 0 Z " fill="#143985" transform="translate(653,905)"/>
<path d="M0 0 C2.08997373 3.39620731 2.2632246 6.05163095 2 10 C1.67 10.33 1.34 10.66 1 11 C0.7834375 12.7325 0.7834375 12.7325 0.5625 14.5 C0.376875 15.655 0.19125 16.81 0 18 C-0.66 18.33 -1.32 18.66 -2 19 C-1.85761163 16.95809019 -1.71092972 14.91647955 -1.5625 12.875 C-1.48128906 11.73804688 -1.40007812 10.60109375 -1.31640625 9.4296875 C-1.02269035 6.2459522 -0.56875687 3.14489093 0 0 Z " fill="#2B4572" transform="translate(200,771)"/>
<path d="M0 0 C0.33 0 0.66 0 1 0 C1.18451025 13.6332574 1.18451025 13.6332574 0 20 C-0.12375 19.360625 -0.2475 18.72125 -0.375 18.0625 C-0.58125 17.381875 -0.7875 16.70125 -1 16 C-1.66 15.67 -2.32 15.34 -3 15 C-2.125 8.125 -2.125 8.125 -1 7 C-0.63239269 4.67182036 -0.29758419 2.3381615 0 0 Z " fill="#1A3465" transform="translate(328,763)"/>
<path d="M0 0 C0.33 0 0.66 0 1 0 C1.29201904 4.96432365 1.14707573 8.03701574 -2 12 C-2.99 12.33 -3.98 12.66 -5 13 C-4.54554036 11.58208592 -4.08625056 10.16571954 -3.625 8.75 C-3.24214844 7.56664062 -3.24214844 7.56664062 -2.8515625 6.359375 C-2.04826333 4.13372042 -1.10288338 2.09068328 0 0 Z " fill="#2E539A" transform="translate(550,493)"/>
<path d="M0 0 C7.11823485 -0.61897694 12.70088852 1.85044426 19 5 C19 5.66 19 6.32 19 7 C12.62267685 5.12275039 6.29304541 3.14328358 0 1 C0 0.67 0 0.34 0 0 Z " fill="#2978FA" transform="translate(918,418)"/>
<path d="M0 0 C3.93604811 0.85370907 7.34244868 2.46383402 10.9765625 4.16015625 C12.9427333 5.12778299 12.9427333 5.12778299 15 5 C15 5.66 15 6.32 15 7 C8.94696161 6.6216851 4.81617877 4.70282835 0 1 C0 0.67 0 0.34 0 0 Z " fill="#1267F9" transform="translate(987,452)"/>
<path d="M0 0 C0 0.66 0 1.32 0 2 C-0.90492188 2.09087891 -0.90492188 2.09087891 -1.828125 2.18359375 C-3.02695312 2.30927734 -3.02695312 2.30927734 -4.25 2.4375 C-5.03890625 2.51871094 -5.8278125 2.59992188 -6.640625 2.68359375 C-8.82364639 2.97634993 -10.8773182 3.42064419 -13 4 C-13.33 3.34 -13.66 2.68 -14 2 C-9.07262981 0.02905192 -5.21979128 -0.1799928 0 0 Z " fill="#102C63" transform="translate(348,298)"/>
<path d="M0 0 C1.65 0.33 3.3 0.66 5 1 C2.81385576 3.18614424 1.46120051 3.68256535 -1.4375 4.625 C-2.21996094 4.88539063 -3.00242187 5.14578125 -3.80859375 5.4140625 C-6 6 -6 6 -9 6 C-8.34 4.68 -7.68 3.36 -7 2 C-4.66666667 2 -2.33333333 2 0 2 C0 1.34 0 0.68 0 0 Z " fill="#2467E8" transform="translate(967,952)"/>
<path d="M0 0 C4.12838068 0.60711481 7.40422382 1.87522317 11 4 C11.33 4.99 11.66 5.98 12 7 C7.76570244 5.68938409 3.92592596 4.05643741 0 2 C0 1.34 0 0.68 0 0 Z " fill="#2E519B" transform="translate(709,939)"/>
<path d="M0 0 C5.85272256 0.45020943 10.08220119 3.03839227 15 6 C15 6.33 15 6.66 15 7 C11.37471432 7.20140476 9.13498292 6.85776765 6 5 C6 4.34 6 3.68 6 3 C5.195625 2.87625 4.39125 2.7525 3.5625 2.625 C2.716875 2.41875 1.87125 2.2125 1 2 C0.67 1.34 0.34 0.68 0 0 Z " fill="#1F76FA" transform="translate(1006,322)"/>
<path d="M0 0 C0.99 0.66 1.98 1.32 3 2 C-2.22512279 3.46670113 -6.5814234 4.22577402 -12 4 C-12 3.34 -12 2.68 -12 2 C-10.95199219 1.90912109 -10.95199219 1.90912109 -9.8828125 1.81640625 C-8.97273437 1.73261719 -8.06265625 1.64882813 -7.125 1.5625 C-6.22007812 1.48128906 -5.31515625 1.40007813 -4.3828125 1.31640625 C-1.98889139 1.13010715 -1.98889139 1.13010715 0 0 Z " fill="#0A2558" transform="translate(238,952)"/>
<path d="M0 0 C0.66 0.33 1.32 0.66 2 1 C-1.3 3.97 -4.6 6.94 -8 10 C-8.66 9.34 -9.32 8.68 -10 8 C-8.47005208 6.76302083 -6.94010417 5.52604167 -5.41015625 4.2890625 C-3.86733563 3.0333609 -3.86733563 3.0333609 -3 1 C-2.01 0.67 -1.02 0.34 0 0 Z " fill="#114EC1" transform="translate(717,453)"/>
<path d="M0 0 C1.41623216 -0.05447047 2.83308191 -0.09300508 4.25 -0.125 C5.03890625 -0.14820313 5.8278125 -0.17140625 6.640625 -0.1953125 C9.20731941 0.0171622 10.7916067 0.71345895 13 2 C8.73787831 2.92153983 5.20357547 3.40119182 1 2 C0.67 1.34 0.34 0.68 0 0 Z " fill="#2A7FFA" transform="translate(907,293)"/>
<path d="M0 0 C1.04794275 3.14382824 1.00520947 4.87203439 0.6875 8.125 C0.60886719 9.01445313 0.53023437 9.90390625 0.44921875 10.8203125 C0.22685547 11.89925781 0.22685547 11.89925781 0 13 C-0.99 13.495 -0.99 13.495 -2 14 C-2.05437607 12.41705218 -2.09296271 10.83355744 -2.125 9.25 C-2.14820313 8.36828125 -2.17140625 7.4865625 -2.1953125 6.578125 C-1.99139502 3.8864142 -1.36551721 2.30095026 0 0 Z " fill="#0E2B5E" transform="translate(184,892)"/>
<path d="M0 0 C0.33 0.66 0.66 1.32 1 2 C1.825 1.835 2.65 1.67 3.5 1.5 C7.41272317 0.94103955 11.05183173 0.93192813 15 1 C15 1.33 15 1.66 15 2 C13.12612523 2.3396019 11.25083303 2.67138691 9.375 3 C8.33085938 3.185625 7.28671875 3.37125 6.2109375 3.5625 C3.09425135 3.98715797 0.14069188 4.07545206 -3 4 C-2.01 2.68 -1.02 1.36 0 0 Z " fill="#2A6CE4" transform="translate(873,835)"/>
<path d="M0 0 C-2.54456151 2.96865509 -5.48994665 4.3619751 -9 6 C-9.66 5.34 -10.32 4.68 -11 4 C-9.73760288 3.13341385 -8.46472499 2.28207941 -7.1875 1.4375 C-6.47980469 0.96183594 -5.77210938 0.48617188 -5.04296875 -0.00390625 C-3 -1 -3 -1 0 0 Z " fill="#1B59CE" transform="translate(693,336)"/>
<path d="M0 0 C-1.98 0.33 -3.96 0.66 -6 1 C-6 1.66 -6 2.32 -6 3 C-9.47325181 4.1577506 -12.36067448 4.06866652 -16 4 C-13.41588269 2.27725513 -11.45097344 1.31104478 -8.5625 0.3125 C-7.41974609 -0.09548828 -7.41974609 -0.09548828 -6.25390625 -0.51171875 C-3.78170279 -1.04729142 -2.37016716 -0.80445309 0 0 Z " fill="#407EED" transform="translate(763,305)"/>
<path d="M0 0 C3.65316671 1.24976756 4.78065836 1.67098753 7 5 C7.1953125 7.26171875 7.1953125 7.26171875 7.125 9.6875 C7.10695313 10.49574219 7.08890625 11.30398438 7.0703125 12.13671875 C7.03550781 13.05904297 7.03550781 13.05904297 7 14 C6.67 14 6.34 14 6 14 C5.67 10.7 5.34 7.4 5 4 C3.35 3.67 1.7 3.34 0 3 C0 2.01 0 1.02 0 0 Z " fill="#1F3A6E" transform="translate(392,298)"/>
<path d="M0 0 C3.2578125 -0.29296875 3.2578125 -0.29296875 7.125 -0.1875 C9.04699219 -0.14689453 9.04699219 -0.14689453 11.0078125 -0.10546875 C11.99523437 -0.07066406 12.98265625 -0.03585937 14 0 C13.67 0.66 13.34 1.32 13 2 C12.01 1.979375 11.02 1.95875 10 1.9375 C5.93431926 1.92918572 2.02337824 2.43531533 -2 3 C-1.34 2.01 -0.68 1.02 0 0 Z " fill="#0B63F8" transform="translate(808,293)"/>
<path d="M0 0 C0.66 0.66 1.32 1.32 2 2 C1.73486085 4.34206251 1.39387788 6.67612053 1 9 C0.96454703 10.66628955 0.94951812 12.33409803 1 14 C0.34 13.67 -0.32 13.34 -1 13 C-1.02708567 11.39592672 -1.04643483 9.7917215 -1.0625 8.1875 C-1.07410156 7.29417969 -1.08570313 6.40085937 -1.09765625 5.48046875 C-1 3 -1 3 0 0 Z " fill="#0E2B5D" transform="translate(178,926)"/>
<path d="M0 0 C0.66 0 1.32 0 2 0 C0.64978174 4.41889613 -1.26115668 6.34345343 -5 9 C-5.66 8.34 -6.32 7.68 -7 7 C-4.66666667 4.66666667 -2.33333333 2.33333333 0 0 Z " fill="#112C5C" transform="translate(296,914)"/>
<path d="M0 0 C0.33 0 0.66 0 1 0 C1.05389087 1.95803507 1.09274217 3.91648909 1.125 5.875 C1.14820313 6.96554687 1.17140625 8.05609375 1.1953125 9.1796875 C1 12 1 12 -1 14 C-1.66 12.02 -2.32 10.04 -3 8 C-2.34 8 -1.68 8 -1 8 C-1.020625 6.865625 -1.04125 5.73125 -1.0625 4.5625 C-1 1 -1 1 0 0 Z " fill="#0E2756" transform="translate(317,839)"/>
<path d="M0 0 C2.64 0 5.28 0 8 0 C8 0.99 8 1.98 8 3 C5.36 3 2.72 3 0 3 C0 2.01 0 1.02 0 0 Z " fill="#082F67" transform="translate(507,659)"/>
<path d="M0 0 C0.66 0.33 1.32 0.66 2 1 C0.87548273 3.9719385 -0.22293791 6.33440687 -2 9 C-2.99 9 -3.98 9 -5 9 C-3.7508258 5.54074837 -2.32472205 2.85306797 0 0 Z " fill="#1F458D" transform="translate(539,520)"/>
<path d="M0 0 C4.81938524 -0.23509196 8.46298506 0.54815522 13 2 C11.3125 3.125 11.3125 3.125 9 4 C7.31923769 3.36971413 5.65204456 2.70211894 4 2 C1.75759218 2.28739925 1.75759218 2.28739925 0 3 C0 2.01 0 1.02 0 0 Z " fill="#2475FB" transform="translate(926,296)"/>
<path d="M0 0 C0.66 0.33 1.32 0.66 2 1 C-0.64 3.97 -3.28 6.94 -6 10 C-6.33 9.01 -6.66 8.02 -7 7 C-4.69 4.69 -2.38 2.38 0 0 Z " fill="#0B68FB" transform="translate(1091,867)"/>
<path d="M0 0 C0.99 0.33 1.98 0.66 3 1 C0.14723863 3.93200474 -2.65079784 6.64315404 -6 9 C-6.66 8.67 -7.32 8.34 -8 8 C-5.36 5.36 -2.72 2.72 0 0 Z " fill="#1A3467" transform="translate(760,561)"/>
<path d="M0 0 C0 0.99 0 1.98 0 3 C-2.1875 4.60546875 -2.1875 4.60546875 -5 6.1875 C-5.928125 6.71730469 -6.85625 7.24710938 -7.8125 7.79296875 C-8.534375 8.19128906 -9.25625 8.58960938 -10 9 C-9.609375 7.06640625 -9.609375 7.06640625 -9 5 C-7.25 3.9375 -7.25 3.9375 -5 3 C-3.32665961 2.01120795 -1.65848177 1.01351664 0 0 Z " fill="#1164F8" transform="translate(1036,917)"/>
<path d="M0 0 C3.87915244 0.57468925 6.14756605 2.37884447 9 5 C9.33 5.99 9.66 6.98 10 8 C6.05205855 6.32971708 3.18203882 3.8204435 0 1 C0 0.67 0 0.34 0 0 Z " fill="#0F3883" transform="translate(643,897)"/>
<path d="M0 0 C0.33 0 0.66 0 1 0 C1.25 2.75 1.25 2.75 1 6 C-1 8.375 -1 8.375 -3 10 C-2.67 7.36 -2.34 4.72 -2 2 C-1.34 2 -0.68 2 0 2 C0 1.34 0 0.68 0 0 Z " fill="#EFF2F6" transform="translate(342,698)"/>
<path d="M0 0 C3.91211733 1.15585285 6.8745041 2.35534962 10 5 C8 6 8 6 5 5.125 C2 4 2 4 0 3 C0 2.01 0 1.02 0 0 Z " fill="#116DFA" transform="translate(996,317)"/>
<path d="M0 0 C-3.77222089 1.75163456 -6.666639 2.22490027 -10.8125 2.125 C-12.27623047 2.09792969 -12.27623047 2.09792969 -13.76953125 2.0703125 C-14.50558594 2.04710937 -15.24164062 2.02390625 -16 2 C-13.04655319 0.03103546 -11.94214163 -0.33984715 -8.5625 -0.6875 C-7.41974609 -0.81705078 -7.41974609 -0.81705078 -6.25390625 -0.94921875 C-3.96788208 -1.00072363 -2.17903015 -0.66016176 0 0 Z " fill="#337CF7" transform="translate(807,295)"/>
<path d="M0 0 C2.64 0.33 5.28 0.66 8 1 C4.96474514 3.02350324 3.80573798 3.32124018 0.3125 3.625 C-0.49574219 3.69976563 -1.30398438 3.77453125 -2.13671875 3.8515625 C-2.75160156 3.90054688 -3.36648438 3.94953125 -4 4 C-4 3.34 -4 2.68 -4 2 C-2.68 2 -1.36 2 0 2 C0 1.34 0 0.68 0 0 Z " fill="#1F60DF" transform="translate(926,964)"/>
<path d="M0 0 C-1.44077046 3.36179774 -3.24750021 5.59156268 -6 8 C-6.66 8 -7.32 8 -8 8 C-6.48291727 4.46014029 -4.24676932 0 0 0 Z " fill="#152F5F" transform="translate(290,924)"/>
<path d="M0 0 C3.36179774 1.44077046 5.59156268 3.24750021 8 6 C8 6.66 8 7.32 8 8 C4.82461668 7.65978036 3.97723135 6.97533396 1.75 4.5625 C0 2 0 2 0 0 Z " fill="#0A338D" transform="translate(696,796)"/>
<path d="M0 0 C2.9375 0.8125 2.9375 0.8125 6 2 C6.33 2.99 6.66 3.98 7 5 C9.01508358 5.73323796 9.01508358 5.73323796 11 6 C10.67 6.66 10.34 7.32 10 8 C8.32819726 7.05065487 6.66266064 6.09026687 5 5.125 C4.071875 4.59132813 3.14375 4.05765625 2.1875 3.5078125 C1.465625 3.01023437 0.74375 2.51265625 0 2 C0 1.34 0 0.68 0 0 Z " fill="#175FE9" transform="translate(910,641)"/>
<path d="M0 0 C0.66 0.33 1.32 0.66 2 1 C2 1.66 2 2.32 2 3 C-1.8503105 5.56687367 -3.58569763 4.83288724 -8 4 C-6.66666667 3.33333333 -5.33333333 2.66666667 -4 2 C-3.29875 1.608125 -2.5975 1.21625 -1.875 0.8125 C-1.25625 0.544375 -0.6375 0.27625 0 0 Z " fill="#294E92" transform="translate(515,542)"/>
<path d="M0 0 C0.99 0.33 1.98 0.66 3 1 C1.35 3.64 -0.3 6.28 -2 9 C-2.66 8.67 -3.32 8.34 -4 8 C-2.66666667 5.33333333 -1.33333333 2.66666667 0 0 Z " fill="#134AAE" transform="translate(676,492)"/>
<path d="M0 0 C3.3 0.33 6.6 0.66 10 1 C10 1.33 10 1.66 10 2 C4.91913204 2.84681133 0.15171623 3.09038099 -5 3 C-5 2.67 -5 2.34 -5 2 C-3.35 2 -1.7 2 0 2 C0 1.34 0 0.68 0 0 Z " fill="#4D83DF" transform="translate(890,971)"/>
<path d="M0 0 C2.4294516 3.6441774 2.16179575 5.71241272 2 10 C1.01 10.33 0.02 10.66 -1 11 C-0.67 7.37 -0.34 3.74 0 0 Z " fill="#233F72" transform="translate(189,847)"/>
<path d="M0 0 C5.50366792 -0.32374517 9.43672206 -0.53286034 14 3 C11.01316063 4.49341969 9.04839022 3.40648676 5.875 2.5625 C4.77929688 2.27503906 3.68359375 1.98757813 2.5546875 1.69140625 C1.71164062 1.46324219 0.86859375 1.23507812 0 1 C0 0.67 0 0.34 0 0 Z " fill="#297BFA" transform="translate(903,414)"/>
<path d="M0 0 C0.66 0 1.32 0 2 0 C1.67 4.29 1.34 8.58 1 13 C0.67 13 0.34 13 0 13 C-0.19466332 11.20909747 -0.38051213 9.41723495 -0.5625 7.625 C-0.66691406 6.62726562 -0.77132813 5.62953125 -0.87890625 4.6015625 C-1 2 -1 2 0 0 Z " fill="#2C4473" transform="translate(320,818)"/>
<path d="M0 0 C0.33 0.66 0.66 1.32 1 2 C-0.65 3.98 -2.3 5.96 -4 8 C-4.99 7.67 -5.98 7.34 -7 7 C-4.69 4.69 -2.38 2.38 0 0 Z " fill="#1A3367" transform="translate(729,696)"/>
<path d="M0 0 C1.32 0.33 2.64 0.66 4 1 C4 1.99 4 2.98 4 4 C0.37 3.34 -3.26 2.68 -7 2 C-3 1 -3 1 0 2 C0 1.34 0 0.68 0 0 Z " fill="#C8E1FD" transform="translate(954,299)"/>
<path d="M0 0 C4.455 0.99 4.455 0.99 9 2 C9 2.33 9 2.66 9 3 C5.37 3 1.74 3 -2 3 C-1.34 2.01 -0.68 1.02 0 0 Z " fill="#0442B4" transform="translate(837,971)"/>
<path d="M0 0 C3.7910119 1.44950455 7.3874638 3.15172566 11 5 C8 6 8 6 5.95703125 5.22265625 C5.24933594 4.83980469 4.54164063 4.45695313 3.8125 4.0625 C3.09707031 3.68222656 2.38164063 3.30195312 1.64453125 2.91015625 C1.10183594 2.60980469 0.55914063 2.30945313 0 2 C0 1.34 0 0.68 0 0 Z " fill="#E5E9F4" transform="translate(694,933)"/>
<path d="M0 0 C3.25543229 0.34879632 4.01873107 1.02133261 6.25 3.5625 C6.8275 4.366875 7.405 5.17125 8 6 C5 6 5 6 3.61328125 4.6875 C2.40885417 3.125 1.20442708 1.5625 0 0 Z " fill="#0F3781" transform="translate(627,883)"/>
<path d="M0 0 C0.99 0 1.98 0 3 0 C4.75 2.3125 4.75 2.3125 6 5 C5.67 5.99 5.34 6.98 5 8 C2.74754119 5.31158141 1.11786042 3.35358125 0 0 Z " fill="#13397D" transform="translate(563,802)"/>
<path d="M0 0 C-1.45255699 3.82946843 -3.42895561 5.12050295 -7 7 C-7 6.01 -7 5.02 -7 4 C-2.65714286 0 -2.65714286 0 0 0 Z " fill="#0C62F6" transform="translate(1007,799)"/>
<path d="M0 0 C4.75286041 4.29290618 4.75286041 4.29290618 5 8 C4.34 8.66 3.68 9.32 3 10 C3 8.68 3 7.36 3 6 C2.34 6 1.68 6 1 6 C0.67 4.02 0.34 2.04 0 0 Z " fill="#163E8D" transform="translate(649,730)"/>
<path d="M0 0 C0.99 0.33 1.98 0.66 3 1 C-0.465 3.97 -0.465 3.97 -4 7 C-4 4 -4 4 -2 1.8125 C-1.34 1.214375 -0.68 0.61625 0 0 Z " fill="#116CFA" transform="translate(978,635)"/>
<path d="M0 0 C0.6875 1.625 0.6875 1.625 1 4 C-0.4375 7.25 -0.4375 7.25 -2 10 C-2.66 9.67 -3.32 9.34 -4 9 C-2.94124926 5.59687262 -1.99097846 2.98646769 0 0 Z " fill="#2167F0" transform="translate(899,573)"/>
<path d="M0 0 C0.33 0.66 0.66 1.32 1 2 C-1.47812494 5.45167403 -2.79606135 7.23163306 -7 8 C-6.02133662 6.85373678 -5.04205413 5.70800212 -4.0625 4.5625 C-3.51722656 3.92441406 -2.97195313 3.28632813 -2.41015625 2.62890625 C-1.63204305 1.73008851 -0.84063472 0.84063472 0 0 Z " fill="#1449A8" transform="translate(614,397)"/>
<path d="M0 0 C1.10844919 3.32534757 0.84454356 5.62182575 0 9 C-0.66 9 -1.32 9 -2 9 C-1.125 1.125 -1.125 1.125 0 0 Z " fill="#112D60" transform="translate(196,808)"/>
<path d="M0 0 C1.4606285 2.64738916 2 3.89448334 2 7 C1.34 7 0.68 7 0 7 C0 8.65 0 10.3 0 12 C-0.33 12 -0.66 12 -1 12 C-1.14285714 3.42857143 -1.14285714 3.42857143 0 0 Z " fill="#3F5780" transform="translate(256,378)"/>
<path d="M0 0 C0.66 0.33 1.32 0.66 2 1 C-0.1875 3.0625 -0.1875 3.0625 -3 5 C-5.8125 4.75 -5.8125 4.75 -8 4 C-5.31143836 2.20762558 -3.0466145 1.01553817 0 0 Z " fill="#417FEA" transform="translate(742,310)"/>
<path d="M0 0 C-3.08888522 2.05925681 -3.70935927 2.2390374 -7.1875 2.125 C-9.0746875 2.063125 -9.0746875 2.063125 -11 2 C-11 1.67 -11 1.34 -11 1 C-3.57142857 -1.42857143 -3.57142857 -1.42857143 0 0 Z " fill="#0545CE" transform="translate(904,970)"/>
<path d="M0 0 C0.99 0.33 1.98 0.66 3 1 C-2.75 6 -2.75 6 -5 6 C-4.67 5.01 -4.34 4.02 -4 3 C-3.01 3 -2.02 3 -1 3 C-0.67 2.01 -0.34 1.02 0 0 Z " fill="#146BFB" transform="translate(1046,909)"/>
<path d="M0 0 C1.98 0.66 3.96 1.32 6 2 C6.33 3.65 6.66 5.3 7 7 C5.83040013 6.02433888 4.66438823 5.044375 3.5 4.0625 C2.8503125 3.51722656 2.200625 2.97195313 1.53125 2.41015625 C1.0259375 1.94480469 0.520625 1.47945312 0 1 C0 0.67 0 0.34 0 0 Z " fill="#113884" transform="translate(635,890)"/>
<path d="M0 0 C0.66 0 1.32 0 2 0 C1.34 2.97 0.68 5.94 0 9 C-2 6 -2 6 -2 3 C-1.34 3 -0.68 3 0 3 C0 2.01 0 1.02 0 0 Z " fill="#253D6B" transform="translate(310,884)"/>
<path d="M0 0 C2.31 0 4.62 0 7 0 C6.67 0.99 6.34 1.98 6 3 C5.01 3.33 4.02 3.66 3 4 C2.67 3.01 2.34 2.02 2 1 C1.34 0.67 0.68 0.34 0 0 Z " fill="#0661F4" transform="translate(1032,784)"/>
<path d="M0 0 C-1.39332574 3.36720387 -2.9789286 4.9859524 -6 7 C-5.37162381 3.35541809 -4.14650034 0 0 0 Z " fill="#1C50B9" transform="translate(700,469)"/>
<path d="M0 0 C0.99 0.33 1.98 0.66 3 1 C1.515 4.465 1.515 4.465 0 8 C-0.33 8 -0.66 8 -1 8 C-1.125 2.25 -1.125 2.25 0 0 Z " fill="#0C2A5D" transform="translate(266,352)"/>
</svg>
